<svg width="331" height="226" viewBox="0 0 331 226" fill="none" xmlns="http://www.w3.org/2000/svg">
<g clip-path="url(#clip0_110_8132)">
<path d="M87.7504 39.7272V33.3535C87.7504 32.7317 87.2465 32.2218 86.6182 32.2218H84.9759C84.4969 32.2218 84.0677 31.8985 83.9619 31.4259C83.3958 28.9511 82.4254 26.6255 81.119 24.5362C80.8577 24.1195 80.9075 23.5786 81.2558 23.2303L82.4129 22.0738C82.8546 21.6323 82.8546 20.9172 82.4129 20.4757L77.9028 15.9675C77.4612 15.526 76.7458 15.526 76.3041 15.9675L75.1532 17.1179C74.8049 17.4661 74.2636 17.5158 73.8468 17.2547C71.7504 15.9489 69.4301 14.9788 66.9542 14.413C66.4876 14.3073 66.1579 13.8782 66.1579 13.3994V11.764C66.1579 11.1422 65.654 10.6323 65.0257 10.6323H58.6618C58.0397 10.6323 57.5296 11.136 57.5296 11.764V13.3994C57.5296 13.8782 57.2061 14.3073 56.7334 14.413C54.2575 14.9788 51.9309 15.9489 49.8345 17.2547C49.4177 17.5158 48.8765 17.4661 48.5281 17.1179L47.3772 15.9675C46.9356 15.526 46.2202 15.526 45.7785 15.9675L41.2684 20.4757C40.8267 20.9172 40.8267 21.6323 41.2684 22.0738L42.4192 23.2241C42.7676 23.5723 42.8174 24.1133 42.5561 24.5299C41.2497 26.6255 40.2855 28.9448 39.7132 31.4197C39.6074 31.886 39.1782 32.2156 38.6992 32.2156H37.0755C36.4535 32.2156 35.9434 32.7193 35.9434 33.3473V39.7209C35.9434 40.3428 36.4472 40.8526 37.0755 40.8526H38.7178C39.1969 40.8526 39.6261 41.176 39.7318 41.6486C40.2979 44.1234 41.2684 46.449 42.5748 48.5383C42.836 48.9549 42.7863 49.4959 42.4379 49.8441L41.2808 51.0007C40.8392 51.4422 40.8392 52.1573 41.2808 52.5988L45.7909 57.107C46.2326 57.5484 46.948 57.5484 47.3897 57.107L48.5468 55.9504C48.8951 55.6022 49.4363 55.5524 49.8531 55.8136C51.9433 57.1194 54.2699 58.0832 56.7458 58.6491C57.2124 58.7548 57.5421 59.1838 57.5421 59.6626V61.3042C57.5421 61.926 58.046 62.4359 58.6743 62.4359H65.0506C65.6727 62.4359 66.1828 61.9323 66.1828 61.3042V59.6626C66.1828 59.1838 66.5125 58.7548 66.9791 58.6491C69.4549 58.0832 71.7753 57.1132 73.8717 55.8136C74.2885 55.5524 74.8297 55.6022 75.1781 55.9504L76.3352 57.107C76.7769 57.5484 77.4923 57.5484 77.9339 57.107L82.444 52.5988C82.8857 52.1573 82.8857 51.4422 82.444 51.0007L81.287 49.8441C80.9386 49.4959 80.8888 48.9549 81.1501 48.5383C82.4565 46.449 83.4207 44.1234 83.993 41.6486C84.0988 41.1822 84.528 40.8526 85.007 40.8526H86.6493C87.2465 40.8589 87.7504 40.3552 87.7504 39.7272ZM61.8469 54.514C51.9184 54.514 43.8811 46.4614 43.8811 36.5372C43.8811 26.6255 51.9184 18.5791 61.8469 18.5791C71.7753 18.5791 79.8126 26.6317 79.8126 36.5372C79.8126 46.4614 71.7753 54.514 61.8469 54.514Z" stroke="#DEE3FC" stroke-width="0.274817" stroke-miterlimit="10"/>
<path d="M114.278 75.2827V70.9362C114.278 70.5133 113.935 70.1651 113.506 70.1651H112.386C112.057 70.1651 111.771 69.9412 111.696 69.6241C111.31 67.939 110.651 66.3534 109.761 64.9294C109.581 64.6434 109.618 64.2765 109.855 64.0402L110.638 63.2567C110.937 62.9582 110.937 62.467 110.638 62.1685L107.565 59.0967C107.267 58.7983 106.775 58.7983 106.477 59.0967L105.693 59.8802C105.456 60.1165 105.089 60.1538 104.803 59.9735C103.379 59.0843 101.792 58.4252 100.106 58.0397C99.7892 57.965 99.5653 57.679 99.5653 57.3494V56.2364C99.5653 55.8136 99.2231 55.4653 98.7939 55.4653H94.4456C94.0225 55.4653 93.6742 55.8073 93.6742 56.2364V57.3494C93.6742 57.679 93.4502 57.965 93.133 58.0397C91.4471 58.4252 89.8608 59.0843 88.4362 59.9735C88.1501 60.1538 87.783 60.1165 87.5466 59.8802L86.7628 59.0967C86.4642 58.7983 85.9728 58.7983 85.6742 59.0967L82.6011 62.1685C82.3025 62.467 82.3025 62.9582 82.6011 63.2567L83.3849 64.0402C83.6213 64.2765 83.6586 64.6434 83.4782 64.9294C82.5887 66.3534 81.9292 67.939 81.5436 69.6241C81.4689 69.9412 81.1827 70.1651 80.853 70.1651H79.7333C79.3103 70.1651 78.9619 70.5071 78.9619 70.9362V75.2827C78.9619 75.7055 79.3041 76.0537 79.7333 76.0537H80.853C81.1827 76.0537 81.4689 76.2776 81.5436 76.5947C81.9292 78.2798 82.5887 79.8654 83.4782 81.2894C83.6586 81.5754 83.6213 81.9423 83.3849 82.1786L82.6011 82.9621C82.3025 83.2606 82.3025 83.7518 82.6011 84.0503L85.6742 87.1221C85.9728 87.4205 86.4642 87.4205 86.7628 87.1221L87.5529 86.3323C87.7893 86.0961 88.1563 86.0587 88.4425 86.2391C89.867 87.1283 91.4533 87.7874 93.1392 88.1729C93.4564 88.2475 93.6804 88.5336 93.6804 88.8631V89.9824C93.6804 90.4053 94.0225 90.7535 94.4518 90.7535H98.8001C99.2231 90.7535 99.5715 90.4115 99.5715 89.9824V88.8631C99.5715 88.5336 99.7955 88.2475 100.113 88.1729C101.799 87.7874 103.385 87.1283 104.809 86.2391C105.096 86.0587 105.463 86.0961 105.699 86.3323L106.489 87.1221C106.788 87.4205 107.279 87.4205 107.578 87.1221L110.651 84.0503C110.949 83.7518 110.949 83.2606 110.651 82.9621L109.861 82.1724C109.624 81.9361 109.587 81.5692 109.767 81.2832C110.657 79.8592 111.316 78.2736 111.702 76.5885C111.777 76.2713 112.063 76.0475 112.393 76.0475H113.512C113.929 76.0537 114.278 75.7117 114.278 75.2827ZM96.6228 84.6659C90.2403 84.6659 85.0708 79.4861 85.0708 73.1063C85.0708 66.7327 90.2403 61.5591 96.6228 61.5591C103.005 61.5591 108.175 66.7389 108.175 73.1063C108.175 79.4924 103.005 84.6659 96.6228 84.6659Z" fill="#6A0DAD"/>
<path d="M32.4487 190.288C33.6134 190.288 34.5576 189.344 34.5576 188.18C34.5576 187.016 33.6134 186.072 32.4487 186.072C31.284 186.072 30.3398 187.016 30.3398 188.18C30.3398 189.344 31.284 190.288 32.4487 190.288Z" fill="#091E42"/>
<path d="M314.649 132.757C315.814 132.757 316.758 131.813 316.758 130.649C316.758 129.485 315.814 128.541 314.649 128.541C313.484 128.541 312.54 129.485 312.54 130.649C312.54 131.813 313.484 132.757 314.649 132.757Z" fill="#091E42"/>
<path d="M310.433 57.5733C311.598 57.5733 312.542 56.6296 312.542 55.4654C312.542 54.3012 311.598 53.3574 310.433 53.3574C309.268 53.3574 308.324 54.3012 308.324 55.4654C308.324 56.6296 309.268 57.5733 310.433 57.5733Z" fill="#091E42"/>
<path d="M234.7 31.2332C235.428 31.2332 236.018 30.643 236.018 29.9149C236.018 29.1869 235.428 28.5967 234.7 28.5967C233.971 28.5967 233.381 29.1869 233.381 29.9149C233.381 30.643 233.971 31.2332 234.7 31.2332Z" fill="#091E42"/>
<path d="M40.6972 12.3237C40.6972 13.0512 40.1062 13.6419 39.3784 13.6419C38.6505 13.6419 38.0596 13.0512 38.0596 12.3237C38.0596 11.5961 38.6505 11.0054 39.3784 11.0054C40.1062 10.9992 40.6972 11.5899 40.6972 12.3237Z" fill="#091E42"/>
<path d="M69.9443 93.6508C69.9443 94.3783 69.3533 94.969 68.6255 94.969C67.8976 94.969 67.3066 94.3783 67.3066 93.6508C67.3066 92.9232 67.8976 92.3325 68.6255 92.3325C69.3533 92.3325 69.9443 92.9232 69.9443 93.6508Z" fill="#091E42"/>
<path d="M21.4677 190.288C21.4677 191.016 20.8767 191.607 20.1489 191.607C19.4211 191.607 18.8301 191.016 18.8301 190.288C18.8301 189.561 19.4211 188.97 20.1489 188.97C20.8767 188.97 21.4677 189.561 21.4677 190.288Z" fill="#091E42"/>
<path d="M283.751 191.538C284.916 191.538 285.86 190.594 285.86 189.43C285.86 188.266 284.916 187.322 283.751 187.322C282.587 187.322 281.643 188.266 281.643 189.43C281.643 190.594 282.587 191.538 283.751 191.538Z" fill="#091E42"/>
<path d="M328.541 191.538C329.706 191.538 330.65 190.594 330.65 189.43C330.65 188.266 329.706 187.322 328.541 187.322C327.377 187.322 326.433 188.266 326.433 189.43C326.433 190.594 327.377 191.538 328.541 191.538Z" fill="#091E42"/>
<path d="M77.0141 8.68663C78.1788 8.68663 79.123 7.74286 79.123 6.57866C79.123 5.41447 78.1788 4.4707 77.0141 4.4707C75.8494 4.4707 74.9053 5.41447 74.9053 6.57866C74.9053 7.74286 75.8494 8.68663 77.0141 8.68663Z" fill="#091E42"/>
<path d="M222.346 102.376C222.346 103.93 221.083 105.193 219.528 105.193C217.973 105.193 216.71 103.93 216.71 102.376C216.71 100.821 217.973 99.5591 219.528 99.5591C221.083 99.5591 222.346 100.821 222.346 102.376Z" fill="#091E42"/>
<path d="M14.471 67.5419C14.471 69.0965 13.2082 70.3588 11.653 70.3588C10.0978 70.3588 8.83496 69.0965 8.83496 67.5419C8.83496 65.9874 10.0978 64.7251 11.653 64.7251C13.2082 64.7251 14.471 65.9812 14.471 67.5419Z" fill="#091E42"/>
<path d="M304.254 178.909H300.708C300.478 178.909 300.298 178.723 300.298 178.499V174.954C300.298 174.724 300.484 174.544 300.708 174.544H304.254C304.484 174.544 304.665 174.73 304.665 174.954V178.499C304.665 178.723 304.484 178.909 304.254 178.909Z" fill="#6A0DAD"/>
<path d="M310.103 178.909H306.557C306.327 178.909 306.146 178.723 306.146 178.499V174.954C306.146 174.724 306.333 174.544 306.557 174.544H310.103C310.333 174.544 310.513 174.73 310.513 174.954V178.499C310.513 178.723 310.327 178.909 310.103 178.909Z" fill="#6A0DAD"/>
<path d="M315.945 178.909H312.399C312.169 178.909 311.988 178.723 311.988 178.499V174.954C311.988 174.724 312.175 174.544 312.399 174.544H315.945C316.175 174.544 316.355 174.73 316.355 174.954V178.499C316.362 178.723 316.175 178.909 315.945 178.909Z" fill="#6A0DAD"/>
<path d="M33.9789 176.515H30.433C30.2029 176.515 30.0225 176.329 30.0225 176.105V172.56C30.0225 172.33 30.2091 172.15 30.433 172.15H33.9789C34.2091 172.15 34.3895 172.336 34.3895 172.56V176.105C34.3957 176.329 34.2091 176.515 33.9789 176.515Z" fill="#6A0DAD"/>
<path d="M39.8256 176.515H36.2797C36.0495 176.515 35.8691 176.329 35.8691 176.105V172.56C35.8691 172.33 36.0558 172.15 36.2797 172.15H39.8256C40.0558 172.15 40.2362 172.336 40.2362 172.56V176.105C40.2424 176.329 40.0558 176.515 39.8256 176.515Z" fill="#6A0DAD"/>
<path d="M45.6752 176.515H42.1293C41.8992 176.515 41.7188 176.329 41.7188 176.105V172.56C41.7188 172.33 41.9054 172.15 42.1293 172.15H45.6752C45.9054 172.15 46.0858 172.336 46.0858 172.56V176.105C46.0858 176.329 45.9054 176.515 45.6752 176.515Z" fill="#6A0DAD"/>
<path d="M192.431 214.06H108.263C100.929 214.06 94.9814 208.115 94.9814 200.784V13.5175C94.9814 6.18628 100.929 0.241699 108.263 0.241699H192.431C199.765 0.241699 205.712 6.18628 205.712 13.5175V200.784C205.706 208.122 199.765 214.06 192.431 214.06Z" fill="#FF8C00"/>
<path d="M192 211.025H108.685C102.259 211.025 97.0518 205.82 97.0518 199.397V13.7471C97.0518 7.32375 102.259 2.11914 108.685 2.11914H192C198.426 2.11914 203.633 7.32375 203.633 13.7471V199.397C203.633 205.82 198.426 211.025 192 211.025Z" fill="#F5F5F5"/>
<path d="M198.967 13.3815V198.82C198.967 203.166 195.44 206.692 191.091 206.692H109.592C105.244 206.692 101.717 203.166 101.717 198.82V13.3815C101.717 9.03499 105.244 5.50929 109.592 5.50929H123.185C123.938 5.50929 124.628 5.93212 124.964 6.6099L126.407 9.48892C127.067 10.8196 128.423 11.6528 129.897 11.6528H170.78C172.255 11.6528 173.617 10.8196 174.27 9.48892L175.714 6.6099C176.049 5.93834 176.74 5.50929 177.493 5.50929H191.085C195.44 5.50307 198.967 9.02877 198.967 13.3815Z" fill="#6A0DAD"/>
<path d="M167.504 8.27526H134.577C133.812 8.27526 133.189 7.65344 133.189 6.88861C133.189 6.12377 133.812 5.50195 134.577 5.50195H167.504C168.269 5.50195 168.891 6.12377 168.891 6.88861C168.885 7.65344 168.269 8.27526 167.504 8.27526Z" fill="#6A0DAD"/>
<path d="M186.033 200.256H112.752C109.872 200.256 107.539 197.924 107.539 195.045V169.183C107.539 166.304 109.872 163.973 112.752 163.973H186.027C188.907 163.973 191.24 166.304 191.24 169.183V195.045C191.24 197.924 188.907 200.256 186.033 200.256Z" stroke="#3A3A3A" stroke-width="0.348045" stroke-miterlimit="10" stroke-linecap="round" stroke-linejoin="round" stroke-dasharray="0.99 0.99"/>
<path d="M182.32 111.218H145.972C143.894 111.218 142.215 109.533 142.215 107.462V89.5038C142.215 87.427 143.901 85.748 145.972 85.748H182.32C184.398 85.748 186.078 87.4332 186.078 89.5038V107.462C186.078 109.539 184.392 111.218 182.32 111.218Z" stroke="#3A3A3A" stroke-width="0.348045" stroke-miterlimit="10" stroke-linecap="round" stroke-linejoin="round" stroke-dasharray="0.99 0.99"/>
<path d="M190.145 157.935H115.066C112.59 157.935 110.587 155.933 110.587 153.458V121.807C110.587 119.332 112.59 117.33 115.066 117.33H190.139C192.615 117.33 194.618 119.332 194.618 121.807V153.458C194.624 155.933 192.615 157.935 190.145 157.935Z" fill="#FF8C00"/>
<path d="M191.24 118.518V150.187C191.24 152.656 189.237 154.652 186.767 154.652H112.012C109.542 154.652 107.539 152.656 107.539 150.187V118.518C107.539 116.049 109.542 114.047 112.012 114.047H186.767C189.237 114.047 191.24 116.049 191.24 118.518Z" fill="#FF8C00"/>
<path d="M136.454 151.35H114.433C112.765 151.35 111.409 149.995 111.409 148.328V126.316C111.409 124.65 112.765 123.294 114.433 123.294H136.454C138.121 123.294 139.478 124.65 139.478 126.316V148.328C139.484 149.995 138.128 151.35 136.454 151.35Z" fill="#36B37E"/>
<path d="M162.557 126.838H143.16C142.631 126.838 142.202 126.409 142.202 125.88C142.202 125.352 142.631 124.923 143.16 124.923H162.557C163.085 124.923 163.515 125.352 163.515 125.88C163.515 126.415 163.085 126.838 162.557 126.838Z" fill="#36B37E"/>
<path d="M153.717 130.65H143.16C142.631 130.65 142.202 130.221 142.202 129.692C142.202 129.164 142.631 128.735 143.16 128.735H153.717C154.246 128.735 154.675 129.164 154.675 129.692C154.675 130.227 154.246 130.65 153.717 130.65Z" fill="#36B37E"/>
<path d="M186.171 130.65H157.604C157.076 130.65 156.646 130.221 156.646 129.692C156.646 129.164 157.076 128.735 157.604 128.735H186.171C186.699 128.735 187.129 129.164 187.129 129.692C187.129 130.227 186.699 130.65 186.171 130.65Z" fill="#36B37E"/>
<path d="M159.496 134.462H143.16C142.631 134.462 142.202 134.033 142.202 133.504C142.202 132.975 142.631 132.546 143.16 132.546H159.496C160.025 132.546 160.454 132.975 160.454 133.504C160.454 134.033 160.025 134.462 159.496 134.462Z" fill="#36B37E"/>
<path d="M173.361 134.462H163.091C162.562 134.462 162.133 134.033 162.133 133.504C162.133 132.975 162.562 132.546 163.091 132.546H173.361C173.89 132.546 174.319 132.975 174.319 133.504C174.313 134.033 173.89 134.462 173.361 134.462Z" fill="#36B37E"/>
<path d="M186.17 134.462H176.714C176.185 134.462 175.756 134.033 175.756 133.504C175.756 132.975 176.185 132.546 176.714 132.546H186.17C186.698 132.546 187.128 132.975 187.128 133.504C187.128 134.033 186.698 134.462 186.17 134.462Z" fill="#36B37E"/>
<path d="M186.171 138.273H143.16C142.631 138.273 142.202 137.844 142.202 137.315C142.202 136.786 142.631 136.357 143.16 136.357H186.171C186.7 136.357 187.129 136.786 187.129 137.315C187.129 137.844 186.7 138.273 186.171 138.273Z" fill="#36B37E"/>
<path d="M166.836 142.085H143.166C142.637 142.085 142.208 141.656 142.208 141.127C142.208 140.598 142.637 140.169 143.166 140.169H166.836C167.365 140.169 167.794 140.598 167.794 141.127C167.788 141.656 167.359 142.085 166.836 142.085Z" fill="#36B37E"/>
<path d="M186.172 142.085H170.651C170.123 142.085 169.693 141.656 169.693 141.127C169.693 140.598 170.123 140.169 170.651 140.169H186.172C186.701 140.169 187.13 140.598 187.13 141.127C187.13 141.656 186.701 142.085 186.172 142.085Z" fill="#36B37E"/>
<path d="M157.07 145.897H143.16C142.631 145.897 142.202 145.468 142.202 144.939C142.202 144.41 142.631 143.981 143.16 143.981H157.07C157.599 143.981 158.028 144.41 158.028 144.939C158.028 145.468 157.599 145.897 157.07 145.897Z" fill="#36B37E"/>
<path d="M174.742 145.897H160.832C160.303 145.897 159.874 145.468 159.874 144.939C159.874 144.41 160.303 143.981 160.832 143.981H174.742C175.271 143.981 175.7 144.41 175.7 144.939C175.694 145.468 175.271 145.897 174.742 145.897Z" fill="#36B37E"/>
<path d="M186.173 145.897H178.104C177.576 145.897 177.146 145.468 177.146 144.939C177.146 144.41 177.576 143.981 178.104 143.981H186.173C186.702 143.981 187.131 144.41 187.131 144.939C187.131 145.468 186.702 145.897 186.173 145.897Z" fill="#36B37E"/>
<path d="M162.557 149.709H143.16C142.631 149.709 142.202 149.28 142.202 148.751C142.202 148.223 142.631 147.793 143.16 147.793H162.557C163.085 147.793 163.515 148.223 163.515 148.751C163.515 149.28 163.085 149.709 162.557 149.709Z" fill="#36B37E"/>
<path d="M186.172 126.838H166.775C166.247 126.838 165.817 126.409 165.817 125.88C165.817 125.352 166.247 124.923 166.775 124.923H186.172C186.701 124.923 187.13 125.352 187.13 125.88C187.13 126.415 186.701 126.838 186.172 126.838Z" fill="#36B37E"/>
<path d="M191.241 118.517V119.848H107.54V118.517C107.54 116.049 109.543 114.046 112.013 114.046H186.768C189.238 114.046 191.241 116.049 191.241 118.517Z" fill="#3052CE"/>
<path d="M175.466 117.05C175.466 117.622 175 118.089 174.428 118.089C173.855 118.089 173.389 117.622 173.389 117.05C173.389 116.478 173.855 116.012 174.428 116.012C175.006 116.012 175.466 116.478 175.466 117.05Z" fill="#6A0DAD"/>
<path d="M180.772 117.05C180.772 117.622 180.306 118.089 179.733 118.089C179.161 118.089 178.694 117.622 178.694 117.05C178.694 116.478 179.161 116.012 179.733 116.012C180.306 116.012 180.772 116.478 180.772 117.05Z" fill="#6A0DAD"/>
<path d="M186.078 117.05C186.078 117.622 185.611 118.089 185.039 118.089C184.467 118.089 184 117.622 184 117.05C184 116.478 184.467 116.012 185.039 116.012C185.611 116.012 186.078 116.478 186.078 117.05Z" fill="#6A0DAD"/>
<path d="M133.455 111.218H116.889C114.432 111.218 112.441 109.228 112.441 106.772V90.2131C112.441 87.7569 114.432 85.7671 116.889 85.7671H133.455C135.913 85.7671 137.903 87.7569 137.903 90.2131V106.772C137.903 109.228 135.913 111.218 133.455 111.218Z" stroke="#FF8C00" stroke-width="0.311709" stroke-miterlimit="10"/>
<path d="M121.203 94.8149L117.532 98.4775L121.234 102.177" stroke="#FF8C00" stroke-width="0.581793" stroke-miterlimit="10" stroke-linecap="round" stroke-linejoin="round"/>
<path d="M129.147 94.8149L132.818 98.4775L129.116 102.177" stroke="#FF8C00" stroke-width="0.581793" stroke-miterlimit="10" stroke-linecap="round" stroke-linejoin="round"/>
<path d="M126.895 94.8149L123.461 102.177" stroke="#FF8C00" stroke-width="0.581793" stroke-miterlimit="10" stroke-linecap="round" stroke-linejoin="round"/>
<path d="M191.24 23.6475V75.4263C191.24 78.2369 188.963 80.5127 186.152 80.5127H112.628C109.822 80.5127 107.539 78.2369 107.539 75.4263V23.6475C107.539 20.8369 109.822 18.561 112.628 18.561H186.152C188.963 18.561 191.24 20.8369 191.24 23.6475Z" fill="#6A0DAD"/>
<path d="M174.29 47.0468C180.989 47.0468 186.42 41.618 186.42 34.9213C186.42 28.2246 180.989 22.7959 174.29 22.7959C167.59 22.7959 162.159 28.2246 162.159 34.9213C162.159 41.618 167.59 47.0468 174.29 47.0468Z" fill="#F0F4FF"/>
<path d="M156.74 80.5122H112.628C109.822 80.5122 107.539 78.2363 107.539 75.4257V67.2737L126.842 33.851C127.85 32.1037 130.376 32.1037 131.383 33.851L145.959 59.0844L156.783 77.8259C157.306 78.7214 157.225 79.7411 156.74 80.5122Z" fill="#F4F5F7"/>
<path d="M175.763 80.5118H133.579L145.959 59.084L152.627 47.5368C153.536 45.9636 155.806 45.9636 156.714 47.5368L175.763 80.5118Z" fill="#F0F4FF"/>
<path d="M259.44 176.727H226.918V225.577H259.44V176.727Z" fill="#3B47BC"/>
<path d="M259.436 225.573H271.89V176.723H259.436V225.573Z" fill="#FF8C00"/>
<path d="M270.362 178.598H261.218V180.159H270.362V178.598Z" fill="#6A0DAD"/>
<path d="M270.362 181.949H261.218V183.51H270.362V181.949Z" fill="#6A0DAD"/>
<path d="M270.362 185.301H261.218V186.862H270.362V185.301Z" fill="#6A0DAD"/>
<path d="M270.362 188.646H261.218V190.207H270.362V188.646Z" fill="#6A0DAD"/>
<path d="M270.362 191.998H261.218V193.559H270.362V191.998Z" fill="#6A0DAD"/>
<path d="M270.362 195.343H261.218V196.904H270.362V195.343Z" fill="#6A0DAD"/>
<path d="M270.362 198.696H261.218V200.257H270.362V198.696Z" fill="#6A0DAD"/>
<path d="M270.362 202.047H261.218V203.608H270.362V202.047Z" fill="#6A0DAD"/>
<path d="M270.362 205.392H261.218V206.952H270.362V205.392Z" fill="#6A0DAD"/>
<path d="M270.362 208.744H261.218V210.304H270.362V208.744Z" fill="#6A0DAD"/>
<path d="M270.362 212.096H261.218V213.656H270.362V212.096Z" fill="#6A0DAD"/>
<path d="M270.362 215.441H261.218V217.002H270.362V215.441Z" fill="#6A0DAD"/>
<path d="M270.362 218.792H261.218V220.353H270.362V218.792Z" fill="#6A0DAD"/>
<path d="M270.362 222.139H261.218V223.699H270.362V222.139Z" fill="#6A0DAD"/>
<path d="M221.63 225.576H238.158C238.158 225.576 239.079 222.635 237.082 218.991C237.082 218.991 235.751 220.055 231.769 219.333C231.769 219.333 230.109 220.745 228.958 221.298C227.801 221.858 221.188 223.151 221.63 225.576Z" fill="#281616"/>
<path d="M222.788 178.989C223.858 185.357 228.778 206.896 230.9 219.619C234.769 219.948 236.629 219.507 237.612 219.277C237.419 214.837 237.04 204.223 237.083 199.571C237.158 191.705 237.525 181.334 234.06 175.638L222.408 176.552C222.477 177.167 222.545 177.665 222.601 178.025C222.657 178.374 222.719 178.691 222.788 178.989Z" fill="#2B2B2B"/>
<path d="M191.739 225.576H208.268C208.268 225.576 209.189 222.635 207.192 218.991C207.192 218.991 205.861 220.055 201.879 219.333C201.879 219.333 200.218 220.745 199.068 221.298C197.911 221.858 191.292 223.151 191.739 225.576Z" fill="#281616"/>
<path d="M201.395 219.253C204.555 220.036 206.838 219.956 207.926 219.837C208.804 214.72 210.191 203.471 211.441 198.192C213.382 189.99 215.279 178.717 213.961 174.693L202.502 171.814C202.458 172.181 201.525 206.692 201.395 219.253Z" fill="#212121"/>
<path d="M247 160.074C246.77 157.81 246.502 156.156 246.502 156.156L233.7 159.29L222.826 161.765C218.795 162.66 213.924 163.742 209.631 164.712C204.81 165.807 201.613 169.463 202.67 174.288L203.877 180.14C210.614 180.046 242.303 177.012 245.009 175.644C248.076 174.096 248.997 168.636 247 160.074Z" fill="#212121"/>
<path d="M266.109 160.075C265.879 157.811 264.772 155.38 264.772 155.38L252.809 159.285L241.935 161.76C237.904 162.655 233.033 163.737 228.741 164.707C223.92 165.802 220.722 169.458 221.78 174.283L222.986 180.134C229.724 180.041 257.892 179.059 264.119 175.639C267.129 173.991 268.106 168.637 266.109 160.075Z" fill="#2B2B2B"/>
<path d="M230.28 141.736C230.28 141.736 235.966 139.168 237.533 141.742C238.392 143.154 237.795 145.772 235.86 146.872C233.919 147.973 222.964 152.606 212.619 155.186C212.619 155.186 212.177 153.75 211.462 152.239C211.462 152.239 216.103 150.317 220.712 147.078C225.328 143.832 230.28 141.736 230.28 141.736Z" fill="#6A0DAD"/>
<path d="M231.704 123.983L226.833 143.44C226.833 143.44 227.337 148.359 232.307 145.946C237.278 143.533 240.569 128.031 240.569 128.031L231.704 123.983Z" fill="#F5F5F5"/>
<path d="M239.945 134.866C239.341 134.723 238.769 134.561 238.209 134.393C237.643 134.225 237.102 134.051 236.585 133.871C231.957 132.285 229.45 130.376 229.45 130.376C230.906 124.052 232.66 119.799 234.222 117.001C234.265 116.933 234.302 116.87 234.34 116.796C234.383 116.727 234.421 116.659 234.464 116.591C235.304 115.198 236.511 114.029 237.855 113.065C237.991 112.965 238.122 112.878 238.265 112.779L238.837 122.939L238.937 123.984L239.945 134.866Z" fill="#6A0DAD"/>
<path d="M239.943 134.866C239.34 134.723 238.768 134.561 238.208 134.393C237.642 134.225 237.1 134.051 236.584 133.871C237.554 127.031 238.438 122.728 238.438 122.728L238.935 123.984L239.943 134.866Z" fill="#6A0DAD"/>
<path d="M268.716 117.299C268.598 120.309 268.069 125.134 267.615 129.984C267.472 131.52 267.329 133.069 267.211 134.555C267.13 135.481 265.73 140.437 265.674 141.326C265.425 145.567 263.348 148.738 265.313 155.199C265.786 156.747 265.904 157.543 265.904 158.178C265.904 158.619 265.332 159.086 265.102 159.21C264.274 159.689 262.657 160.018 260.685 160.261H260.679C256.803 160.733 251.578 160.82 248.424 160.82C244.187 160.82 237.83 160.149 237.027 159.079C236.293 158.103 236.971 156.679 237.32 154.72C238.881 145.872 238.327 141.258 238.228 134.866C238.228 134.704 238.222 134.549 238.222 134.381C238.06 124.525 237.413 116.093 237.867 113.052C238.004 112.953 238.135 112.866 238.278 112.766C238.949 112.306 239.609 111.902 240.243 111.541C240.299 111.516 240.368 111.473 240.436 111.429C240.629 111.318 240.834 111.212 241.021 111.112C241.089 111.069 241.164 111.038 241.245 111C242.682 110.298 244.772 109.552 245.973 109.135C246.128 109.085 246.265 109.035 246.383 109.004C247.516 108.936 248.741 108.924 250.066 108.955C251.217 108.992 252.977 109.141 254.893 109.39C254.9 109.39 254.9 109.39 254.9 109.39C257.065 109.67 259.428 110.074 261.307 110.59C261.307 110.59 261.326 110.596 261.344 110.602C261.699 110.714 263.995 111.572 266.383 114.128C267.161 114.992 267.982 116.031 268.716 117.299Z" fill="#6A0DAD"/>
<path d="M265.313 155.205C265.785 156.754 265.904 157.549 265.904 158.184C265.904 158.625 265.331 159.092 265.101 159.216C264.274 159.695 262.656 160.024 260.684 160.267C261.493 160.167 262.893 158.886 262.893 157.724C262.893 156.909 261.841 151.425 262.128 147.886C262.42 144.355 262.992 138.727 261.897 134.219C260.796 129.717 259.764 123.791 259.764 123.791L265.941 127.522C265.941 127.522 266.737 128.635 267.614 129.991C267.471 131.526 267.328 133.075 267.21 134.561C267.129 135.487 263.341 148.745 265.313 155.205Z" fill="#6A0DAD"/>
<path d="M238.132 91.2563C238.132 91.2563 238.667 97.7108 240.807 98.1461C242.947 98.5814 242.424 95.8391 242.424 95.8391L242.126 92.7736L238.132 91.2563Z" fill="#002C54"/>
<path d="M248.013 114.663C243.821 114.165 245.388 110.092 245.961 109.153C246.116 109.104 246.831 108.886 246.887 108.849C246.894 108.842 246.9 108.842 246.9 108.842C247.037 108.73 247.143 108.563 247.223 108.357C247.634 107.282 247.447 105.143 247.429 105.006C247.429 105 247.429 105 247.429 105V104.614C247.497 104.359 247.566 104.117 247.622 103.887L249.824 102.152L254.489 98.4829C254.489 98.4829 253.251 104.614 254.247 108.482C254.321 108.774 254.477 109.184 254.863 109.408C254.863 109.414 254.869 109.408 254.869 109.408C254.993 109.489 255.149 109.545 255.335 109.576C256.492 110.111 254.9 115.477 248.013 114.663Z" fill="#F5F5F5"/>
<path d="M251.706 102.375C251.706 102.375 251.669 106.467 247.221 108.351C247.631 107.281 247.445 105.142 247.432 105.005L249.292 103.544L251.706 102.375Z" fill="#F5F5F5"/>
<path d="M239.16 92.1779C239.16 92.1779 240.131 105.578 243.751 106.716C243.751 106.716 248.361 107.151 251.67 102.699C252.622 101.418 253.829 101.126 254.221 99.5776C254.862 97.0592 255.764 92.4204 254.613 89.6223C252.977 85.6426 239.316 82.4776 239.16 92.1779Z" fill="#F5F5F5"/>
<path d="M254.668 87.4145C254.606 84.9832 252.143 84.0691 252.143 84.0691C249.692 82.9188 244.591 83.4162 239.334 84.5915C238.102 84.8651 236.553 84.1127 235.695 84.7096C234.656 85.4309 235.689 88.7266 235.689 88.7266C237.717 94.8639 245.175 92.8679 247.421 92.1092C247.956 93.6887 247.888 95.8837 249.213 97.0216C249.972 97.6683 251.284 97.6869 252.628 97.4631C252.79 97.774 253.412 98.0538 253.536 98.4829C253.959 99.9193 253.897 102.164 253.884 103.893L254.519 103.582C254.606 103.109 261.15 87.6135 254.668 87.4145Z" fill="#002C54"/>
<path d="M242.873 96.6857C243.06 97.7987 242.512 98.8185 241.647 98.9677C240.783 99.117 239.924 98.3335 239.738 97.2204C239.551 96.1074 240.098 95.0876 240.963 94.9383C241.828 94.7953 242.68 95.5726 242.873 96.6857Z" stroke="#3F3F3F" stroke-width="0.174371" stroke-miterlimit="10"/>
<path d="M247.246 95.8715C247.433 96.9845 246.885 98.0043 246.021 98.1536C245.156 98.3028 244.297 97.5193 244.111 96.4063C243.924 95.2932 244.472 94.2734 245.336 94.1242C246.201 93.975 247.053 94.7584 247.246 95.8715Z" stroke="#3F3F3F" stroke-width="0.174371" stroke-miterlimit="10"/>
<path d="M242.874 96.6855C242.874 96.6855 243.067 96.3746 244.075 96.4617" stroke="#3F3F3F" stroke-width="0.174371" stroke-miterlimit="10"/>
<path d="M247.284 96.1384L251.023 95.5415" stroke="#3F3F3F" stroke-width="0.174371" stroke-miterlimit="10"/>
<path d="M251.294 100.285C253.87 101.274 254.672 94.9376 252.228 94.6578C250.374 94.4464 250.299 97.0331 250.299 97.0331C250.299 97.0331 249.826 99.7194 251.294 100.285Z" fill="#F5F5F5"/>
<g opacity="0.5">
<g opacity="0.5">
<path opacity="0.5" d="M252.153 95.6099C251.743 96.0824 251.568 96.5986 251.519 97.1458C251.481 97.4194 251.513 97.6992 251.519 97.9914C251.55 98.2775 251.581 98.5759 251.606 98.8869C251.506 98.7625 251.438 98.6257 251.351 98.4951C251.282 98.3521 251.226 98.2091 251.177 98.0598C251.09 97.7551 251.04 97.438 251.071 97.1084C251.102 96.7851 251.201 96.4555 251.394 96.1882C251.575 95.9083 251.842 95.6907 252.153 95.6099Z" fill="#F5F5F5"/>
</g>
<g opacity="0.5">
<path opacity="0.5" d="M252.552 96.8103C252.279 96.8538 252.024 96.9844 251.849 97.1647C251.669 97.3451 251.563 97.5751 251.52 97.8114L251.097 97.6622C251.24 97.3824 251.451 97.1336 251.719 96.9844C251.974 96.8352 252.279 96.7854 252.552 96.8103Z" fill="#F5F5F5"/>
</g>
</g>
<path d="M276.05 144.299C276.05 144.299 276.05 144.299 276.05 144.305C274.917 145.617 270.625 146.575 268.56 144.759C267.913 144.181 267.179 142.657 266.457 140.767C264.628 135.935 262.893 128.704 262.893 128.704L272.504 123.797C272.504 123.797 273.742 129.338 274.805 134.605C274.805 134.605 274.818 134.661 274.837 134.754C275.185 136.439 275.508 138.099 275.757 139.523C275.77 139.56 275.77 139.598 275.776 139.635C276.025 141.326 276.186 143.099 276.05 144.299Z" fill="#F5F5F5"/>
<path d="M259.261 121.976C260.188 125.831 263.105 133.144 263.105 133.144C265.146 133.479 267.889 133.106 270.16 132.292C272.779 131.353 274.651 129.375 274.651 129.375C274.651 129.375 272.716 123.941 270.981 120.036C269.426 116.529 268.486 115.223 267.814 114.526C266.8 113.463 265.158 112.244 264.001 111.691L259.261 121.976Z" fill="#6A0DAD"/>
<path d="M271.417 124.494L265.781 122.063L261.339 110.621C261.339 110.621 262.154 110.87 263.224 111.299C263.224 111.299 263.224 111.299 263.23 111.299C263.249 111.311 263.298 111.324 263.373 111.355C263.398 111.367 263.429 111.373 263.454 111.392C264.412 111.84 268.126 114.029 270.701 121.982C270.72 122.05 270.745 122.119 270.763 122.181C271.037 123.095 271.236 123.835 271.348 124.214C271.361 124.251 271.367 124.289 271.379 124.326C271.385 124.388 271.398 124.444 271.417 124.494Z" fill="#6A0DAD"/>
<path d="M276.051 144.299C276.051 144.299 276.051 144.299 276.051 144.305C275.97 145.008 275.777 145.512 275.429 145.692C275.373 145.729 274.583 146.196 274.527 146.233C273.351 146.948 271.224 148.173 268.573 149.311C262.147 152.084 252.81 155.305 247.777 156.779C247.777 156.779 247.28 155.355 246.502 153.875C246.502 153.875 251.056 151.761 255.528 148.335C260.007 144.915 266.458 140.761 266.458 140.761L268.088 138.846C268.088 138.846 273.874 133.523 274.807 134.593C274.807 134.593 274.819 134.649 274.838 134.742C274.975 135.295 275.435 137.341 275.758 139.511C275.771 139.549 275.771 139.586 275.777 139.623C276.026 141.327 276.188 143.099 276.051 144.299Z" fill="#F5F5F5"/>
<path d="M247.167 153.552C247.167 153.552 246.035 154.236 244.884 153.994C244.243 153.857 243.988 153.602 243.516 153.515C243.043 153.434 241.786 153.279 241.164 152.974C240.542 152.669 240.299 152.632 240.324 153.26C240.349 153.882 241.575 154.423 241.904 154.597C242.24 154.771 242.657 155.324 242.701 155.393C242.744 155.461 240.654 156.556 240.094 156.332C240.094 156.332 239.926 156.835 240.019 157.115C240.113 157.395 240.542 157.494 240.579 157.637C240.61 157.78 240.48 158.067 240.573 158.29C240.666 158.514 241.052 158.514 241.208 158.881C241.363 159.248 241.195 159.248 241.307 159.634C241.419 160.013 241.904 160.081 241.998 160.274C242.091 160.467 242.041 160.697 242.246 160.834C242.452 160.97 244.33 160.367 245.015 160.069C245.699 159.777 247.534 157.134 249.562 156.238L247.167 153.552Z" fill="#F5F5F5"/>
<path d="M256.772 165.328H242.153V163.898H256.772C257.164 163.898 257.488 164.215 257.488 164.613C257.488 165.011 257.164 165.328 256.772 165.328Z" fill="#375F84"/>
<path d="M248.859 165.328H212.262C211.827 165.328 211.441 165.036 211.323 164.613L203.833 137.657C203.665 137.06 204.119 136.469 204.735 136.469H240.125C240.953 136.469 241.674 137.016 241.892 137.812L249.357 164.669C249.45 165.004 249.202 165.328 248.859 165.328Z" fill="#375F84"/>
<path d="M247.532 165.328H210.935C210.5 165.328 210.114 165.036 209.996 164.613L202.506 137.657C202.338 137.06 202.792 136.469 203.408 136.469H238.798C239.626 136.469 240.347 137.016 240.565 137.812L248.03 164.669C248.123 165.004 247.874 165.328 247.532 165.328Z" fill="#FF8C00"/>
<path d="M102.481 147.911L106.724 143.565C106.724 143.565 106.873 141.625 107.104 141.22C107.334 140.81 107.931 139.299 108.229 139.131C108.528 138.963 109.119 139.131 109.119 139.131C109.119 139.131 109.71 138.932 109.971 138.932C110.233 138.932 110.73 139.175 110.73 139.175C110.73 139.175 111.365 139.131 111.626 139.131C111.887 139.131 111.974 139.206 111.974 139.206C111.974 139.206 112.995 138.03 113.492 137.632C113.99 137.235 114.743 136.507 114.967 136.513C115.178 136.513 115.271 136.886 115.116 137.284C114.96 137.682 114.289 138.316 114.289 138.316L112.36 141.245C112.36 141.245 112.69 141.115 112.864 141.003C113.038 140.891 114.22 139.79 114.289 139.747C114.357 139.703 114.886 139.349 115.197 139.703C115.508 140.058 113.175 142.843 112.802 143.223C112.429 143.596 110.289 144.684 110.289 144.684C110.289 144.684 108.024 148.751 107.806 149.012C107.589 149.273 102.481 147.911 102.481 147.911Z" fill="#F5F5F5"/>
<path d="M106.47 127.858C106.47 127.858 104.099 141.569 101.872 141.886C101.872 141.886 92.9766 142.247 90.9922 131.452C89.2752 122.094 96.1679 120.098 99.3965 120.813C102.619 121.534 107.166 122.001 106.47 127.858Z" fill="#F5F5F5"/>
<path d="M98.6085 139.698C98.6085 139.698 97.3643 141.377 96.9226 145.443C96.9226 145.443 93.215 145.972 89.7998 144.212C89.7998 144.212 91.6412 138.473 91.8651 132.242" fill="#F5F5F5"/>
<path d="M96.1008 118.524C91.2361 119.6 91.628 122.628 91.628 122.628C89.3512 123.194 88.8598 124.133 88.8784 128.33C88.8971 132.533 90.415 137.576 91.2548 137.987C92.0946 138.397 96.8473 138.416 97.2455 138.273C97.6436 138.13 99.3045 134.275 98.9188 133.597C98.5332 132.919 98.9375 130.251 100.045 130.152C101.152 130.052 100.934 131.769 100.934 131.769L101.843 131.57L102.546 129.847C108.972 130.226 110.633 122.908 110.633 122.908C109.09 121.9 100.959 117.448 96.1008 118.524Z" fill="#002C54"/>
<path d="M42.1157 211.348L47.0302 212.057L45.4003 217.797L40.0753 216.454C40.0753 216.454 37.9105 213.519 41.1826 211.348C41.3444 211.249 41.8607 211.292 42.1157 211.348Z" fill="#F5F5F5"/>
<path d="M78.8188 196.613L71.5715 174.681C71.5715 174.681 69.3756 173.898 68.2496 174.681C68.2496 174.681 60.6975 178.742 61.5062 190.307C62.1159 199.032 63.9572 208.489 64.7037 212.283L45.3694 211.567C45.3694 211.567 42.9868 214.403 44.5296 218.09C44.5296 218.09 68.8281 224.619 72.2496 225.223C75.0303 225.714 78.0785 226.093 79.5466 224.831C82.1283 222.617 78.8188 196.613 78.8188 196.613Z" fill="#212529"/>
<path d="M65.0093 211.348L69.9238 212.057L68.2939 217.797L62.9689 216.454C62.9689 216.454 60.804 213.519 64.0762 211.348C64.2379 211.249 64.7542 211.292 65.0093 211.348Z" fill="#F5F5F5"/>
<path d="M63.2243 214.36C63.1123 215.491 64.1014 216.505 63.921 216.791C63.7406 217.071 60.4373 222.617 60.4373 222.617C60.4373 222.617 62.9319 223.705 62.5275 225.272H56.2134C56.2134 225.272 54.5649 223.786 54.6022 221.653C54.6022 221.653 55.0314 219.197 56.1574 217.027C57.2834 214.857 59.8463 209.951 59.8463 209.951C59.8463 209.951 60.6239 209.634 61.9552 209.988C63.5104 210.405 65.0096 211.356 65.0096 211.356C65.0096 211.356 63.498 211.568 63.2243 214.36Z" fill="#313232"/>
<path d="M113.847 220.23C112.285 214.409 97.6042 189.568 92.64 182.858C82.4378 178.431 71.57 174.675 71.57 174.675C67.0724 175.751 64.8578 184.805 67.4083 190.843C69.1564 194.984 80.2543 205.406 87.0537 211.543L68.1921 211.518C68.1921 211.518 65.9713 214.838 67.9869 217.991C67.9869 217.991 99.3522 225.117 102.102 225.521C104.851 225.925 111.029 225.521 111.029 225.521C111.029 225.521 115.159 225.13 113.847 220.23Z" fill="#212529"/>
<path d="M40.3297 214.36C40.2177 215.491 41.2069 216.505 41.0264 216.791C40.846 217.071 37.5428 222.617 37.5428 222.617C37.5428 222.617 40.0373 223.705 39.633 225.272H33.3188C33.3188 225.272 31.6703 223.786 31.7077 221.653C31.7077 221.653 32.1369 219.197 33.2629 217.027C34.3888 214.857 36.9518 209.951 36.9518 209.951C36.9518 209.951 37.7294 209.634 39.0607 209.988C40.6159 210.405 42.1151 211.356 42.1151 211.356C42.1151 211.356 40.6034 211.568 40.3297 214.36Z" fill="#313232"/>
<path d="M137.461 143.689L127.346 161.473L120.098 154.254L114.102 163.177L115.843 164.01L115.215 164.533C115.215 164.533 129.193 171.335 130.873 169.837C132.546 168.338 140.353 145.71 140.353 145.71L137.461 143.689Z" fill="#F5F5F5"/>
<path d="M121.387 155.391C121.387 155.391 119.477 163.444 115.658 167.262L105.885 163.543C105.885 163.543 101.35 171.167 96.9143 177.012C95.2097 179.269 94.6437 182.446 92.6406 182.863C92.5161 182.82 92.3979 182.782 92.2735 182.751C86.8427 181.122 78.8303 182.851 72.2176 180.394C64.9143 177.677 66.3327 176.147 66.3327 176.147C66.3327 176.147 70.7619 168.17 73.2751 159.719C74.3949 155.982 75.1725 152.518 75.6888 149.813C76.6157 145.025 80.454 141.282 85.2938 140.629C85.3497 140.623 85.3995 140.611 85.4555 140.604C90.992 139.902 105.487 141.612 108.305 142.818C111.123 144.024 121.387 155.391 121.387 155.391Z" fill="#36B37E"/>
<path d="M105.886 163.544C105.886 163.544 101.351 171.168 96.9153 177.013C95.2108 179.27 94.6447 182.448 92.6416 182.864C93.5187 182.553 94.9744 177.939 95.4907 176.901C96.0133 175.869 96.8407 174.83 98.6323 171.205C100.418 167.574 102.844 162.251 102.844 162.251L105.886 163.544Z" fill="#36B37E"/>
<path d="M87.0508 211.541C88.6993 211.255 90.3789 211.311 92.0274 211.529C92.8548 211.647 93.6697 211.809 94.4722 212.039C95.2747 212.25 96.0523 212.573 96.7988 212.94L94.3602 212.542C93.5515 212.418 92.7491 212.287 91.9403 212.182C90.3229 211.952 88.7055 211.777 87.0508 211.541Z" fill="black"/>
<path d="M145.021 137.148C144.859 137.129 143.821 137.962 143.323 138.373L143.901 137.266C143.901 137.266 144.667 136.532 144.94 136.128C145.214 135.724 145.071 135.32 144.853 135.301C144.704 135.289 143.79 136.01 143.261 136.439L143.379 136.215C143.379 136.215 144.144 135.481 144.418 135.077C144.692 134.673 144.548 134.269 144.331 134.244C144.113 134.225 142.359 135.693 142.359 135.693L141.506 136.837L142.153 135.587C142.153 135.587 142.496 135.17 142.72 134.723C142.943 134.269 142.782 134.132 142.657 133.983C142.533 133.834 141.351 134.71 141.046 135.065C140.748 135.419 139.79 136.843 139.715 137.042L138.726 139.082C138.664 138.491 138.564 137.477 138.496 136.831C138.396 135.904 137.55 135.68 137.525 136.134C137.494 136.588 137.027 138.808 137.133 140.014C137.239 141.221 137.444 142.01 137.519 142.688C137.594 143.366 136.891 144.722 136.891 144.722C136.891 144.722 139.709 146.469 140.169 145.947C140.636 145.424 141.625 144.261 142.104 143.478C142.763 142.402 143.205 140.991 143.205 140.991L144.082 139.113C144.082 139.113 144.847 138.379 145.121 137.975C145.382 137.571 145.239 137.166 145.021 137.148Z" fill="#F5F5F5"/>
<path d="M306.607 80.5122H273.593C271.478 80.5122 269.761 82.2284 269.761 84.3426V92.1402C269.761 94.0927 271.223 95.7032 273.108 95.9395C273.381 95.9768 273.593 96.2069 273.593 96.4867V100.752C273.593 101.001 273.91 101.101 274.053 100.902L277.419 96.2007C277.524 96.0514 277.692 95.9706 277.873 95.9706H306.607C308.722 95.9706 310.439 94.2544 310.439 92.1402V84.3426C310.432 82.2284 308.722 80.5122 306.607 80.5122Z" stroke="#3F3F3F" stroke-width="0.311709" stroke-miterlimit="10"/>
<path d="M278.656 88.2296C278.656 88.926 278.089 89.4919 277.393 89.4919C276.696 89.4919 276.13 88.926 276.13 88.2296C276.13 87.5331 276.696 86.9673 277.393 86.9673C278.096 86.9673 278.656 87.5331 278.656 88.2296Z" stroke="#3F3F3F" stroke-width="0.311709" stroke-miterlimit="10"/>
<path d="M285.007 88.2296C285.007 88.926 284.441 89.4919 283.744 89.4919C283.048 89.4919 282.481 88.926 282.481 88.2296C282.481 87.5331 283.048 86.9673 283.744 86.9673C284.441 86.9673 285.007 87.5331 285.007 88.2296Z" stroke="#3F3F3F" stroke-width="0.311709" stroke-miterlimit="10"/>
<path d="M291.359 88.2296C291.359 88.926 290.793 89.4919 290.096 89.4919C289.399 89.4919 288.833 88.926 288.833 88.2296C288.833 87.5331 289.399 86.9673 290.096 86.9673C290.793 86.9673 291.359 87.5331 291.359 88.2296Z" stroke="#3F3F3F" stroke-width="0.311709" stroke-miterlimit="10"/>
<path d="M297.712 88.2296C297.712 88.926 297.146 89.4919 296.449 89.4919C295.753 89.4919 295.187 88.926 295.187 88.2296C295.187 87.5331 295.753 86.9673 296.449 86.9673C297.146 86.9673 297.712 87.5331 297.712 88.2296Z" stroke="#3F3F3F" stroke-width="0.311709" stroke-miterlimit="10"/>
<path d="M304.062 88.2296C304.062 88.926 303.496 89.4919 302.799 89.4919C302.102 89.4919 301.536 88.926 301.536 88.2296C301.536 87.5331 302.102 86.9673 302.799 86.9673C303.496 86.9673 304.062 87.5331 304.062 88.2296Z" stroke="#3F3F3F" stroke-width="0.311709" stroke-miterlimit="10"/>
<path d="M45.7676 114.688H78.7753C80.8903 114.688 82.6073 116.404 82.6073 118.518V126.316C82.6073 128.268 81.1454 129.879 79.2605 130.115C78.9868 130.153 78.7753 130.383 78.7753 130.662V134.928C78.7753 135.177 78.458 135.276 78.3149 135.077L74.9495 130.376C74.8437 130.227 74.6757 130.146 74.4953 130.146H45.7676C43.6525 130.146 41.9355 128.43 41.9355 126.316V118.518C41.9355 116.398 43.6463 114.688 45.7676 114.688Z" stroke="#3F3F3F" stroke-width="0.311709" stroke-miterlimit="10"/>
<path d="M73.7129 122.399C73.7129 123.095 74.279 123.661 74.9757 123.661C75.6724 123.661 76.2385 123.095 76.2385 122.399C76.2385 121.702 75.6724 121.136 74.9757 121.136C74.279 121.142 73.7129 121.702 73.7129 122.399Z" stroke="#3F3F3F" stroke-width="0.311709" stroke-miterlimit="10"/>
<path d="M67.3594 122.399C67.3594 123.095 67.9255 123.661 68.6222 123.661C69.3189 123.661 69.885 123.095 69.885 122.399C69.885 121.702 69.3189 121.136 68.6222 121.136C67.9255 121.142 67.3594 121.702 67.3594 122.399Z" stroke="#3F3F3F" stroke-width="0.311709" stroke-miterlimit="10"/>
<path d="M61.0098 122.399C61.0098 123.095 61.5759 123.661 62.2726 123.661C62.9693 123.661 63.5354 123.095 63.5354 122.399C63.5354 121.702 62.9693 121.136 62.2726 121.136C61.5759 121.142 61.0098 121.702 61.0098 122.399Z" stroke="#3F3F3F" stroke-width="0.311709" stroke-miterlimit="10"/>
<path d="M54.6562 122.399C54.6562 123.095 55.2223 123.661 55.9191 123.661C56.6158 123.661 57.1819 123.095 57.1819 122.399C57.1819 121.702 56.6158 121.136 55.9191 121.136C55.2223 121.142 54.6562 121.702 54.6562 122.399Z" stroke="#3F3F3F" stroke-width="0.311709" stroke-miterlimit="10"/>
<path d="M48.3066 122.399C48.3066 123.095 48.8727 123.661 49.5695 123.661C50.2662 123.661 50.8323 123.095 50.8323 122.399C50.8323 121.702 50.2662 121.136 49.5695 121.136C48.8727 121.142 48.3066 121.702 48.3066 122.399Z" stroke="#3F3F3F" stroke-width="0.311709" stroke-miterlimit="10"/>
<path d="M245.121 62.5291H184.954C181.638 62.5291 178.944 59.8429 178.944 56.5224C178.944 53.2081 181.632 50.5156 184.954 50.5156H245.121C248.437 50.5156 251.131 53.2019 251.131 56.5224C251.131 59.8429 248.443 62.5291 245.121 62.5291Z" fill="#F5F5F5" stroke="#007BFF" stroke-width="0.311709" stroke-miterlimit="10"/>
<path d="M244.243 56.1126C244.243 57.8786 242.812 59.3088 241.045 59.3088C239.278 59.3088 237.848 57.8786 237.848 56.1126C237.848 54.3467 239.278 52.9165 241.045 52.9165C242.812 52.9165 244.243 54.3467 244.243 56.1126Z" stroke="#007BFF" stroke-width="0.581793" stroke-miterlimit="10"/>
<path d="M243.302 58.3711L245.068 60.1308" stroke="#0052CC" stroke-width="0.581793" stroke-miterlimit="10" stroke-linecap="round"/>
<path d="M153.984 225.862H138.849C136.199 225.862 134.053 223.717 134.053 221.068V205.946C134.053 203.297 136.199 201.151 138.849 201.151H153.984C156.634 201.151 158.781 203.297 158.781 205.946V221.074C158.774 223.717 156.628 225.862 153.984 225.862Z" fill="#193091"/>
<path d="M149.475 225.862H134.34C131.69 225.862 129.544 223.717 129.544 221.068V205.946C129.544 203.297 131.69 201.151 134.34 201.151H149.475C152.126 201.151 154.272 203.297 154.272 205.946V221.074C154.272 223.717 152.126 225.862 149.475 225.862Z" fill="#FF8C00"/>
<path d="M138.986 208.843L146.084 212.941C146.519 213.196 146.519 213.824 146.084 214.078L138.986 218.176C138.55 218.431 138.003 218.114 138.003 217.61V209.421C138.003 208.905 138.55 208.588 138.986 208.843Z" fill="#6A0DAD"/>
<path d="M310.553 225.863H290.765C287.306 225.863 284.494 223.058 284.494 219.595V199.815C284.494 196.357 287.3 193.547 290.765 193.547H310.553C314.012 193.547 316.824 196.351 316.824 199.815V219.595C316.824 223.058 314.012 225.863 310.553 225.863Z" fill="#193091"/>
<path d="M304.658 225.863H284.869C281.41 225.863 278.599 223.058 278.599 219.595V199.815C278.599 196.357 281.404 193.547 284.869 193.547H304.658C308.116 193.547 310.928 196.351 310.928 199.815V219.595C310.928 223.058 308.123 225.863 304.658 225.863Z" fill="#FF8C00"/>
<path d="M298.651 201.482C298.651 203.627 296.916 205.362 294.769 205.362C292.623 205.362 290.888 203.621 290.888 201.482C290.888 199.336 292.63 197.602 294.769 197.602C296.909 197.602 298.651 199.343 298.651 201.482Z" fill="#F4F5F7"/>
<path d="M302.862 214.625V220.359C302.862 220.875 302.439 221.298 301.922 221.298H287.608C287.092 221.298 286.669 220.875 286.669 220.359V214.625C286.669 210.155 290.296 206.536 294.762 206.536C299.235 206.536 302.862 210.155 302.862 214.625Z" fill="#F4F5F7"/>
<path d="M222.483 69.4513H209.773C209.245 69.4513 208.815 69.0223 208.815 68.4937C208.815 67.9652 209.245 67.5361 209.773 67.5361H222.483C223.011 67.5361 223.441 67.9652 223.441 68.4937C223.434 69.0223 223.011 69.4513 222.483 69.4513Z" fill="#F4F5F7"/>
<path d="M235.197 69.4513H226.003C225.474 69.4513 225.045 69.0223 225.045 68.4937C225.045 67.9652 225.474 67.5361 226.003 67.5361H235.197C235.726 67.5361 236.155 67.9652 236.155 68.4937C236.149 69.0223 235.72 69.4513 235.197 69.4513Z" fill="#F4F5F7"/>
<path d="M215.173 73.6481H209.773C209.245 73.6481 208.815 73.2191 208.815 72.6905C208.815 72.162 209.245 71.7329 209.773 71.7329H215.173C215.702 71.7329 216.131 72.162 216.131 72.6905C216.131 73.2191 215.702 73.6481 215.173 73.6481Z" fill="#F4F5F7"/>
<path d="M235.198 73.6481H218.383C217.854 73.6481 217.425 73.2191 217.425 72.6905C217.425 72.162 217.854 71.7329 218.383 71.7329H235.198C235.726 71.7329 236.156 72.162 236.156 72.6905C236.149 73.2191 235.72 73.6481 235.198 73.6481Z" fill="#F4F5F7"/>
<path d="M226.526 77.8449H209.773C209.245 77.8449 208.815 77.4158 208.815 76.8873C208.815 76.3587 209.245 75.9297 209.773 75.9297H226.526C227.055 75.9297 227.484 76.3587 227.484 76.8873C227.478 77.4158 227.055 77.8449 226.526 77.8449Z" fill="#F4F5F7"/>
<path d="M235.198 77.8449H229.798C229.269 77.8449 228.84 77.4158 228.84 76.8873C228.84 76.3587 229.269 75.9297 229.798 75.9297H235.198C235.726 75.9297 236.156 76.3587 236.156 76.8873C236.149 77.4158 235.72 77.8449 235.198 77.8449Z" fill="#F4F5F7"/>
<path d="M61.5554 166.945H17.1947C15.8821 166.945 14.8184 165.881 14.8184 164.569V142.184C14.8184 140.872 15.8821 139.809 17.1947 139.809H61.5616C62.8742 139.809 63.938 140.872 63.938 142.184V164.569C63.938 165.881 62.8742 166.945 61.5554 166.945Z" fill="#193091"/>
<path d="M16.9023 143.471H61.8478" stroke="#3F3F3F" stroke-width="0.311709" stroke-miterlimit="10" stroke-linecap="round"/>
<path d="M60.6617 142.153C60.964 142.153 61.2091 141.908 61.2091 141.606C61.2091 141.304 60.964 141.059 60.6617 141.059C60.3594 141.059 60.1143 141.304 60.1143 141.606C60.1143 141.908 60.3594 142.153 60.6617 142.153Z" fill="#F4F5F7"/>
<path d="M57.8228 142.153C58.1252 142.153 58.3703 141.908 58.3703 141.606C58.3703 141.304 58.1252 141.059 57.8228 141.059C57.5205 141.059 57.2754 141.304 57.2754 141.606C57.2754 141.908 57.5205 142.153 57.8228 142.153Z" fill="#F4F5F7"/>
<path d="M54.9879 142.153C55.2902 142.153 55.5353 141.908 55.5353 141.606C55.5353 141.304 55.2902 141.059 54.9879 141.059C54.6855 141.059 54.4404 141.304 54.4404 141.606C54.4404 141.908 54.6855 142.153 54.9879 142.153Z" fill="#F4F5F7"/>
<path d="M25.2847 147.123H17.658C17.2412 147.123 16.9053 146.787 16.9053 146.371C16.9053 145.954 17.2412 145.618 17.658 145.618H25.2847C25.7015 145.618 26.0374 145.954 26.0374 146.371C26.0374 146.787 25.7015 147.123 25.2847 147.123Z" fill="#6589D1"/>
<path d="M25.2847 150.6H17.658C17.2412 150.6 16.9053 150.264 16.9053 149.848C16.9053 149.431 17.2412 149.095 17.658 149.095H25.2847C25.7015 149.095 26.0374 149.431 26.0374 149.848C26.0374 150.264 25.7015 150.6 25.2847 150.6Z" fill="#6589D1"/>
<path d="M25.2847 154.069H17.658C17.2412 154.069 16.9053 153.733 16.9053 153.316C16.9053 152.9 17.2412 152.564 17.658 152.564H25.2847C25.7015 152.564 26.0374 152.9 26.0374 153.316C26.0374 153.733 25.7015 154.069 25.2847 154.069Z" fill="#6589D1"/>
<path d="M25.2847 157.539H17.658C17.2412 157.539 16.9053 157.203 16.9053 156.786C16.9053 156.369 17.2412 156.034 17.658 156.034H25.2847C25.7015 156.034 26.0374 156.369 26.0374 156.786C26.0374 157.203 25.7015 157.539 25.2847 157.539Z" fill="#6589D1"/>
<path d="M25.2847 161.015H17.658C17.2412 161.015 16.9053 160.679 16.9053 160.262C16.9053 159.846 17.2412 159.51 17.658 159.51H25.2847C25.7015 159.51 26.0374 159.846 26.0374 160.262C26.0374 160.679 25.7015 161.015 25.2847 161.015Z" fill="#6589D1"/>
<path d="M25.2847 164.484H17.658C17.2412 164.484 16.9053 164.149 16.9053 163.732C16.9053 163.315 17.2412 162.979 17.658 162.979H25.2847C25.7015 162.979 26.0374 163.315 26.0374 163.732C26.0374 164.149 25.7015 164.484 25.2847 164.484Z" fill="#6589D1"/>
<path d="M61.0998 147.123H28.2351C27.8183 147.123 27.4824 146.787 27.4824 146.371C27.4824 145.954 27.8183 145.618 28.2351 145.618H61.0998C61.5166 145.618 61.8525 145.954 61.8525 146.371C61.8525 146.787 61.5166 147.123 61.0998 147.123Z" fill="#3B5FB7"/>
<path d="M61.0998 150.6H28.2351C27.8183 150.6 27.4824 150.264 27.4824 149.848C27.4824 149.431 27.8183 149.095 28.2351 149.095H61.0998C61.5166 149.095 61.8525 149.431 61.8525 149.848C61.8525 150.264 61.5166 150.6 61.0998 150.6Z" fill="#3B5FB7"/>
<path d="M61.0998 154.069H28.2351C27.8183 154.069 27.4824 153.733 27.4824 153.316C27.4824 152.9 27.8183 152.564 28.2351 152.564H61.0998C61.5166 152.564 61.8525 152.9 61.8525 153.316C61.8525 153.733 61.5166 154.069 61.0998 154.069Z" fill="#3B5FB7"/>
<path d="M61.0998 157.539H28.2351C27.8183 157.539 27.4824 157.203 27.4824 156.786C27.4824 156.369 27.8183 156.034 28.2351 156.034H61.0998C61.5166 156.034 61.8525 156.369 61.8525 156.786C61.8525 157.203 61.5166 157.539 61.0998 157.539Z" fill="#3B5FB7"/>
<path d="M61.0998 161.015H28.2351C27.8183 161.015 27.4824 160.679 27.4824 160.262C27.4824 159.846 27.8183 159.51 28.2351 159.51H61.0998C61.5166 159.51 61.8525 159.846 61.8525 160.262C61.8525 160.679 61.5166 161.015 61.0998 161.015Z" fill="#3B5FB7"/>
<path d="M61.0998 164.484H28.2351C27.8183 164.484 27.4824 164.149 27.4824 163.732C27.4824 163.315 27.8183 162.979 28.2351 162.979H61.0998C61.5166 162.979 61.8525 163.315 61.8525 163.732C61.8525 164.149 61.5166 164.484 61.0998 164.484Z" fill="#3B5FB7"/>
<path d="M291.857 25.1613C294.46 14.3038 287.764 3.39317 276.902 0.791823C266.039 -1.80953 255.124 4.88345 252.522 15.741C249.919 26.5986 256.615 37.5092 267.477 40.1106C278.339 42.7119 289.255 36.0189 291.857 25.1613Z" stroke="#DEE3FC" stroke-width="0.274817" stroke-miterlimit="10"/>
<path d="M279.305 36.5367C288.184 32.61 292.197 22.232 288.269 13.3567C284.34 4.48147 273.958 0.469821 265.079 4.39649C256.2 8.32315 252.187 18.7012 256.115 27.5765C260.043 36.4517 270.426 40.4634 279.305 36.5367Z" fill="#FF8C00"/>
<path d="M273.784 20.4579C273.784 21.3409 273.069 22.056 272.186 22.056C271.302 22.056 270.587 21.3409 270.587 20.4579C270.587 19.575 271.302 18.8599 272.186 18.8599C273.069 18.8599 273.784 19.575 273.784 20.4579Z" fill="#F4F5F7"/>
<path d="M272.011 20.1402C271.768 20.277 271.464 20.1899 271.333 19.9474L266.163 10.6264C266.027 10.3839 266.114 10.0792 266.356 9.94859C266.599 9.81179 266.904 9.89885 267.034 10.1414L272.204 19.4624C272.341 19.7049 272.254 20.0096 272.011 20.1402Z" fill="#F4F5F7"/>
<path d="M272.442 20.712C272.635 20.5192 272.952 20.5192 273.151 20.712L277.624 25.1828C277.817 25.3756 277.817 25.6927 277.624 25.8917C277.431 26.0845 277.114 26.0845 276.915 25.8917L272.442 21.4208C272.243 21.2218 272.243 20.9047 272.442 20.712Z" fill="#F4F5F7"/>
<path d="M272.291 6.39151V4.37061" stroke="#6A0DAD" stroke-width="0.696091" stroke-miterlimit="10" stroke-linecap="round"/>
<path d="M286.258 20.5625H288.28" stroke="#6A0DAD" stroke-width="0.696091" stroke-miterlimit="10" stroke-linecap="round"/>
<path d="M272.08 34.5225V36.5434" stroke="#6A0DAD" stroke-width="0.696091" stroke-miterlimit="10" stroke-linecap="round"/>
<path d="M258.115 20.3506H256.093" stroke="#6A0DAD" stroke-width="0.696091" stroke-miterlimit="10" stroke-linecap="round"/>
<g opacity="0.5">
<path opacity="0.5" d="M265.246 8.21948L264.232 6.47217" stroke="#DEE3FC" stroke-width="0.348045" stroke-miterlimit="10" stroke-linecap="round"/>
<path opacity="0.5" d="M284.432 13.5181L286.18 12.5107" stroke="#DEE3FC" stroke-width="0.348045" stroke-miterlimit="10" stroke-linecap="round"/>
<path opacity="0.5" d="M279.132 32.6938L280.14 34.4412" stroke="#DEE3FC" stroke-width="0.348045" stroke-miterlimit="10" stroke-linecap="round"/>
<path opacity="0.5" d="M259.947 27.396L258.199 28.4096" stroke="#DEE3FC" stroke-width="0.348045" stroke-miterlimit="10" stroke-linecap="round"/>
</g>
<g opacity="0.5">
<path opacity="0.5" d="M260.056 13.3321L258.302 12.3247" stroke="#DEE3FC" stroke-width="0.348045" stroke-miterlimit="10" stroke-linecap="round"/>
<path opacity="0.5" d="M279.315 8.33263L280.323 6.5791" stroke="#DEE3FC" stroke-width="0.348045" stroke-miterlimit="10" stroke-linecap="round"/>
<path opacity="0.5" d="M284.316 27.584L286.071 28.5913" stroke="#DEE3FC" stroke-width="0.348045" stroke-miterlimit="10" stroke-linecap="round"/>
<path opacity="0.5" d="M265.058 32.583L264.05 34.3365" stroke="#DEE3FC" stroke-width="0.348045" stroke-miterlimit="10" stroke-linecap="round"/>
</g>
<path d="M33.8351 115.477H11.633C8.34842 115.477 5.67969 112.815 5.67969 109.526V87.3331C5.67969 84.0499 8.3422 81.3823 11.633 81.3823H33.8351C37.1197 81.3823 39.7885 84.0437 39.7885 87.3331V109.526C39.7885 112.815 37.126 115.477 33.8351 115.477Z" fill="#193091"/>
<path d="M32.372 112.523H7.79969C5.16828 112.523 3.02832 110.39 3.02832 107.753V83.1917C3.02832 80.5614 5.16206 78.4224 7.79969 78.4224H32.372C35.0034 78.4224 37.1433 80.5552 37.1433 83.1917V107.753C37.1433 110.39 35.0096 112.523 32.372 112.523Z" fill="#6A0DAD"/>
<path d="M25.9926 91.5751H25.8122V89.6226C25.8122 86.4202 23.2057 83.8086 19.9957 83.8086C16.7858 83.8086 14.1793 86.4202 14.1793 89.6226V91.5751H14.1419C13.2399 91.5751 12.5059 92.3088 12.5059 93.2105V100.567C12.5059 101.468 13.2399 102.202 14.1419 102.202H25.9926C26.8884 102.202 27.6225 101.468 27.6225 100.567V93.2105C27.6225 92.3088 26.8884 91.5751 25.9926 91.5751ZM21.0159 97.0036C20.8791 97.0844 20.7982 97.2336 20.8418 97.3891L21.1715 98.5954C21.3643 99.3167 20.8169 100.032 20.0704 100.032C19.3177 100.032 18.7702 99.3167 18.9693 98.5954L19.299 97.3767C19.3363 97.2274 19.2617 97.072 19.1248 96.9974C18.4592 96.6056 18.0486 95.8159 18.229 94.9516C18.3783 94.2365 18.9755 93.6457 19.6909 93.5027C20.9102 93.2602 21.9802 94.1867 21.9802 95.362C21.9802 96.0646 21.5945 96.6802 21.0159 97.0036ZM24.3379 91.5751H15.6536V89.6226C15.6536 87.2286 17.6007 85.2823 19.9957 85.2823C22.3908 85.2823 24.3379 87.2286 24.3379 89.6226V91.5751Z" fill="#193091"/>
<path d="M26.9254 104.782H13.2085C12.8228 104.782 12.5117 104.471 12.5117 104.086C12.5117 103.7 12.8228 103.389 13.2085 103.389H26.9191C27.3048 103.389 27.6159 103.7 27.6159 104.086C27.6221 104.465 27.3111 104.782 26.9254 104.782Z" fill="#193091"/>
<path d="M26.9254 107.152H13.2085C12.8228 107.152 12.5117 106.841 12.5117 106.455C12.5117 106.07 12.8228 105.759 13.2085 105.759H26.9191C27.3048 105.759 27.6159 106.07 27.6159 106.455C27.6221 106.835 27.3111 107.152 26.9254 107.152Z" fill="#193091"/>
<path d="M300.619 162.256H287.549C285.615 162.256 284.047 160.69 284.047 158.756V145.691C284.047 143.757 285.615 142.19 287.549 142.19H300.619C302.554 142.19 304.122 143.757 304.122 145.691V158.756C304.122 160.69 302.554 162.256 300.619 162.256Z" fill="#193091"/>
<path d="M299.762 160.515H285.299C283.75 160.515 282.493 159.259 282.493 157.711V143.254C282.493 141.705 283.75 140.449 285.299 140.449H299.762C301.311 140.449 302.568 141.705 302.568 143.254V157.711C302.568 159.259 301.311 160.515 299.762 160.515Z" fill="#6A0DAD"/>
<path d="M288.475 156.474C288.419 156.474 288.363 156.467 288.307 156.449C287.978 156.355 287.785 156.013 287.878 155.684L290.914 144.939C291.007 144.609 291.355 144.417 291.679 144.51C292.009 144.603 292.202 144.945 292.108 145.275L289.072 156.02C288.992 156.293 288.743 156.474 288.475 156.474Z" fill="#FF8C00"/>
<path d="M293.552 156.474C293.496 156.474 293.44 156.467 293.384 156.449C293.055 156.355 292.862 156.013 292.955 155.684L295.991 144.939C296.084 144.609 296.433 144.417 296.756 144.51C297.086 144.603 297.279 144.945 297.185 145.275L294.15 156.02C294.075 156.293 293.826 156.474 293.552 156.474Z" fill="#FF8C00"/>
<path d="M297.904 148.664H287.154C286.812 148.664 286.532 148.384 286.532 148.042C286.532 147.7 286.812 147.42 287.154 147.42H297.904C298.246 147.42 298.526 147.7 298.526 148.042C298.526 148.384 298.246 148.664 297.904 148.664Z" fill="#FF8C00"/>
<path d="M297.904 153.576H287.154C286.812 153.576 286.532 153.296 286.532 152.954C286.532 152.612 286.812 152.333 287.154 152.333H297.904C298.246 152.333 298.526 152.612 298.526 152.954C298.526 153.296 298.246 153.576 297.904 153.576Z" fill="#FF8C00"/>
<path d="M58.1986 98.4958H50.4226C49.9498 98.4958 49.5703 98.1165 49.5703 97.6439C49.5703 97.1713 49.9498 96.792 50.4226 96.792H58.1986C58.6714 96.792 59.0508 97.1713 59.0508 97.6439C59.0508 98.1102 58.6652 98.4958 58.1986 98.4958Z" fill="#F0F4FF"/>
<path d="M66.0306 102.276H50.4226C49.9498 102.276 49.5703 101.897 49.5703 101.424C49.5703 100.952 49.9498 100.572 50.4226 100.572H66.0306C66.5034 100.572 66.8829 100.952 66.8829 101.424C66.8829 101.897 66.4972 102.276 66.0306 102.276Z" fill="#F0F4FF"/>
<path d="M52.2639 106.057H50.4226C49.9498 106.057 49.5703 105.677 49.5703 105.205C49.5703 104.732 49.9498 104.353 50.4226 104.353H52.2639C52.7367 104.353 53.1162 104.732 53.1162 105.205C53.1162 105.677 52.7367 106.057 52.2639 106.057Z" fill="#F0F4FF"/>
<path d="M66.0296 106.057H55.1618C54.689 106.057 54.3096 105.677 54.3096 105.205C54.3096 104.732 54.689 104.353 55.1618 104.353H66.0296C66.5024 104.353 66.8819 104.732 66.8819 105.205C66.8819 105.677 66.4962 106.057 66.0296 106.057Z" fill="#F0F4FF"/>
<path d="M66.0286 98.4958H61.3132C60.8404 98.4958 60.4609 98.1165 60.4609 97.6439C60.4609 97.1713 60.8404 96.792 61.3132 96.792H66.0286C66.5014 96.792 66.8808 97.1713 66.8808 97.6439C66.8808 98.1102 66.4951 98.4958 66.0286 98.4958Z" fill="#F0F4FF"/>
<path d="M19.5907 196.966C18.5767 196.966 17.6312 197.246 16.8162 197.725C16.4927 194.821 14.0293 192.57 11.0371 192.57C7.82714 192.57 5.22061 195.169 5.22061 198.384C5.22061 198.601 5.23305 198.813 5.25794 199.018C4.99044 198.968 4.71672 198.943 4.43679 198.943C1.98578 198.943 -0.00488281 200.933 -0.00488281 203.383C-0.00488281 205.833 1.98578 207.823 4.43679 207.823H19.5845C22.5829 207.823 25.0153 205.392 25.0153 202.395C25.0215 199.391 22.5892 196.966 19.5907 196.966Z" fill="#F4F5F7"/>
<path d="M8.83008 225.577H324.108" stroke="#3F3F3F" stroke-width="0.342442" stroke-miterlimit="10" stroke-linecap="round"/>
</g>
<defs>
<clipPath id="clip0_110_8132">
<rect width="330.643" height="225.881" fill="white"/>
</clipPath>
</defs>
</svg>
