<svg width="648" height="643" viewBox="0 0 648 643" fill="none" xmlns="http://www.w3.org/2000/svg">
<path d="M555.991 505.82H1.89913C1.51343 505.82 1.14354 505.504 0.870802 504.942C0.598067 504.379 0.444824 503.616 0.444824 502.82C0.444824 502.025 0.598067 501.262 0.870802 500.699C1.14354 500.136 1.51343 499.82 1.89913 499.82H555.991C556.376 499.82 556.746 500.136 557.019 500.699C557.292 501.262 557.445 502.025 557.445 502.82C557.445 503.616 557.292 504.379 557.019 504.942C556.746 505.504 556.376 505.82 555.991 505.82Z" fill="#3F3D56"/>
<path d="M378.783 147.567C419.533 147.567 452.567 114.533 452.567 73.7834C452.567 33.034 419.533 0 378.783 0C338.034 0 305 33.034 305 73.7834C305 114.533 338.034 147.567 378.783 147.567Z" fill="#2F2E41"/>
<path d="M308.68 547.435L306.727 513.992L434.798 490.531L437.684 539.895L308.68 547.435Z" fill="#FFB8B8"/>
<path d="M314.886 489.543L318.656 554.045L278.044 556.419L271.899 451.305C277.233 450.993 282.575 451.735 287.622 453.488C292.668 455.24 297.32 457.97 301.312 461.521C305.304 465.072 308.557 469.374 310.886 474.182C313.215 478.99 314.574 484.21 314.886 489.543Z" fill="#2F2E41"/>
<path d="M364.382 547.129L343.108 573.01L233.154 503.274L264.551 465.076L364.382 547.129Z" fill="#FFB8B8"/>
<path d="M320.521 585.42L361.548 535.505L392.976 561.336L326.118 642.679C321.99 639.287 318.572 635.115 316.057 630.402C313.542 625.688 311.98 620.526 311.46 615.209C310.941 609.892 311.474 604.524 313.028 599.413C314.583 594.302 317.129 589.547 320.521 585.42Z" fill="#2F2E41"/>
<path d="M303.164 426.769L288.627 495.303C288.292 496.881 288.311 498.513 288.681 500.083C289.052 501.653 289.766 503.121 290.771 504.383C291.776 505.645 293.048 506.668 294.496 507.38C295.943 508.092 297.53 508.474 299.143 508.5L442.059 510.805C443.67 510.831 445.266 510.501 446.735 509.838C448.203 509.174 449.507 508.195 450.552 506.969C451.598 505.743 452.359 504.301 452.782 502.747C453.205 501.192 453.279 499.563 452.999 497.976L440.499 427.138C440.052 424.607 438.728 422.315 436.76 420.663C434.791 419.012 432.304 418.106 429.734 418.106H313.857C311.352 418.106 308.923 418.967 306.976 420.544C305.03 422.121 303.684 424.319 303.164 426.769Z" fill="#2F2E41"/>
<path d="M326.863 450.898C326.863 450.898 187.494 363.451 160.167 409.908C146.504 433.136 153.335 455.681 163.583 472.419C173.093 487.659 186.744 499.877 202.941 507.646L315.932 562.94L356.923 519.216L329.596 494.622L326.863 450.898Z" fill="#2F2E41"/>
<path d="M397.912 437.235C397.912 437.235 578.272 385.314 542.747 483.692C507.221 582.07 373.318 543.812 373.318 543.812L359.654 502.821L406.111 470.028L397.912 437.235Z" fill="#2F2E41"/>
<path d="M379.712 157.751C416.781 157.751 446.831 127.701 446.831 90.6321C446.831 53.5636 416.781 23.5137 379.712 23.5137C342.644 23.5137 312.594 53.5636 312.594 90.6321C312.594 127.701 342.644 157.751 379.712 157.751Z" fill="#FFB8B8"/>
<path d="M383.228 448.081C355.338 447.659 327.591 444.003 300.544 437.187L299.745 436.968L262.291 264.684C258.922 249.545 261.213 233.696 268.731 220.131C276.25 206.565 288.475 196.222 303.099 191.056C348.27 174.848 397.504 173.865 443.286 188.256C458.648 193.207 471.579 203.767 479.499 217.831C487.418 231.894 489.744 248.427 486.013 264.129L444.179 436.824L443.59 437.105C426.205 445.34 404.465 448.081 383.228 448.081Z" fill="#6A0DAD"/>
<path d="M332.919 461.464C334.28 457.684 336.452 454.248 339.284 451.398C342.115 448.549 345.537 446.355 349.309 444.971C353.08 443.586 357.109 443.046 361.112 443.388C365.115 443.729 368.994 444.944 372.477 446.947L446.223 382.935L452.895 433.24L381.841 486.315C378.089 491.942 372.403 495.998 365.86 497.712C359.317 499.427 352.373 498.682 346.342 495.619C340.312 492.556 335.615 487.387 333.141 481.092C330.667 474.797 330.588 467.813 332.919 461.464Z" fill="#FFB8B8"/>
<path d="M403.253 475.426C402.053 475.425 400.86 475.25 399.71 474.906C397.844 474.363 396.135 473.381 394.727 472.042C393.319 470.703 392.251 469.046 391.615 467.209L382.713 441.99C381.88 439.66 381.774 437.131 382.41 434.739C383.045 432.347 384.392 430.204 386.272 428.594L486.751 368.271L447.143 191.57L448.15 191.328C448.56 191.226 489.141 181.99 505.771 226.335C517.417 257.393 560.512 324.924 557.471 370.558C556.894 379.686 553.256 388.353 547.147 395.16C541.037 401.967 532.812 406.515 523.799 408.072L410.697 472.872C408.566 474.524 405.948 475.422 403.253 475.426Z" fill="#6A0DAD"/>
<path d="M414.521 455.47C413.161 451.69 410.988 448.254 408.157 445.404C405.325 442.555 401.903 440.361 398.131 438.977C394.36 437.593 390.331 437.052 386.328 437.394C382.325 437.735 378.446 438.95 374.964 440.953L301.217 376.94L294.545 427.246L365.599 480.321C369.351 485.948 375.038 490.003 381.58 491.718C388.123 493.433 395.068 492.688 401.098 489.625C407.128 486.562 411.825 481.393 414.299 475.098C416.773 468.803 416.852 461.819 414.521 455.47Z" fill="#FFB8B8"/>
<path d="M351.585 475.426C348.89 475.423 346.272 474.524 344.142 472.873L222.841 413.537C213.828 411.981 205.603 407.432 199.493 400.626C193.384 393.819 189.746 385.152 189.169 376.024C186.129 330.389 237.422 257.393 249.067 226.335C265.696 181.99 306.278 191.224 306.688 191.328L307.696 191.571L259.889 373.737L368.566 428.594C370.446 430.204 371.793 432.347 372.429 434.739C373.064 437.131 372.958 439.66 372.125 441.991L363.224 467.21C362.587 469.046 361.52 470.703 360.111 472.042C358.703 473.381 356.994 474.363 355.128 474.906C353.979 475.25 352.785 475.425 351.585 475.426Z" fill="#6A0DAD"/>
<path d="M496.292 502.821H253.08C248.009 502.815 243.147 500.797 239.56 497.211C235.974 493.625 233.957 488.763 233.951 483.692V349.788C233.957 344.717 235.974 339.855 239.56 336.269C243.147 332.682 248.009 330.665 253.08 330.659H496.292C501.364 330.665 506.226 332.682 509.812 336.269C513.398 339.855 515.415 344.717 515.421 349.788V483.692C515.415 488.763 513.398 493.625 509.812 497.211C506.226 500.797 501.364 502.815 496.292 502.821Z" fill="#007BFF"/>
<path d="M374.5 433C383.613 433 391 425.613 391 416.5C391 407.387 383.613 400 374.5 400C365.387 400 358 407.387 358 416.5C358 425.613 365.387 433 374.5 433Z" fill="#F5F5F5"/>
<rect x="366" y="409.021" width="15.9574" height="15.9574" rx="1.59574" fill="#212529"/>
<rect x="367.33" y="410.351" width="13.2979" height="13.2979" rx="1.59574" fill="#F5F5F5"/>
<rect x="373.446" y="409.021" width="1.06383" height="15.9574" fill="#F5F5F5"/>
<path d="M368.66 413.277C368.66 412.396 369.375 411.681 370.256 411.681H377.703C378.584 411.681 379.298 412.396 379.298 413.277V413.809H368.66V413.277Z" fill="#007BFF"/>
<path d="M379.299 420.723C379.299 421.604 378.584 422.319 377.703 422.319H370.256C369.375 422.319 368.661 421.604 368.661 420.723V420.191H379.299V420.723Z" fill="#007BFF"/>
<path d="M377.703 422.319C378.584 422.319 379.299 421.604 379.299 420.723V413.276C379.299 412.395 378.584 411.681 377.703 411.681H377.171V422.319H377.703Z" fill="#007BFF"/>
<rect x="368.66" y="420.191" width="6.38298" height="2.12766" transform="rotate(-90 368.66 420.191)" fill="#007BFF"/>
<ellipse cx="371.413" cy="416.277" rx="2.16536" ry="1.76528" transform="rotate(28.6166 371.413 416.277)" fill="#F5F5F5"/>
<line x1="368.096" y1="421.755" x2="373.415" y2="416.436" stroke="#F5F5F5" stroke-width="1.59574"/>
<line x1="373.288" y1="417.267" x2="384.778" y2="405.777" stroke="#F5F5F5" stroke-width="3.45745"/>
<path d="M370.787 416.069L373.393 417L381.957 408.596" stroke="#212529" stroke-width="1.59574" stroke-linecap="round"/>
<path d="M311.922 87.8997C307.944 77.8096 314.47 65.7853 324.153 60.8976C333.835 56.0099 345.518 56.9395 355.875 60.1608C364.578 62.8679 372.735 67.0633 381.226 70.3769C389.597 74.0864 398.741 75.7149 407.878 75.1234C416.935 74.1005 425.949 69.0218 429.655 60.6946C433.496 52.0631 430.884 41.5297 424.968 34.1633C418.673 27.0417 410.527 21.8058 401.434 19.0382C381.465 12.003 358.399 11.7973 339.86 22.0237C321.321 32.25 308.722 54.0244 312.554 74.8472" fill="#2F2E41"/>
<path d="M75.8444 474.418C79.2206 438.058 88.5453 402.499 103.446 369.161C107.599 359.884 112.17 350.81 117.159 341.941C117.41 341.477 117.47 340.934 117.328 340.427C117.185 339.919 116.851 339.487 116.396 339.221C115.941 338.955 115.401 338.876 114.889 339.001C114.377 339.126 113.933 339.445 113.652 339.891C95.5086 372.194 82.7981 407.26 76.0284 443.686C74.1452 453.858 72.7298 464.102 71.7823 474.418C71.5415 477.02 75.6051 477.003 75.8444 474.418Z" fill="#212529"/>
<path d="M126.998 348.454C141.207 348.454 152.725 336.936 152.725 322.727C152.725 308.518 141.207 297 126.998 297C112.79 297 101.271 308.518 101.271 322.727C101.271 336.936 112.79 348.454 126.998 348.454Z" fill="#007BFF"/>
<path d="M78.4778 475.101C80.6681 451.513 86.7175 428.444 96.3845 406.816C99.0787 400.798 102.044 394.911 105.281 389.157C105.443 388.856 105.482 388.504 105.39 388.175C105.297 387.846 105.081 387.566 104.786 387.393C104.49 387.221 104.14 387.169 103.808 387.25C103.476 387.331 103.188 387.538 103.005 387.827C91.235 408.784 82.989 431.533 78.5972 455.164C77.3755 461.763 76.4573 468.409 75.8426 475.101C75.6864 476.789 78.3226 476.779 78.4778 475.101Z" fill="#212529"/>
<path d="M111.663 393.382C120.881 393.382 128.353 385.91 128.353 376.692C128.353 367.474 120.881 360.002 111.663 360.002C102.445 360.002 94.9727 367.474 94.9727 376.692C94.9727 385.91 102.445 393.382 111.663 393.382Z" fill="#007BFF"/>
<path d="M75.151 473.525C62.3696 453.579 52.9508 431.669 47.2706 408.67C45.6931 402.267 44.4109 395.802 43.424 389.275C43.367 388.937 43.1813 388.636 42.9059 388.433C42.6306 388.23 42.2872 388.142 41.9483 388.188C41.6094 388.233 41.3015 388.408 41.0894 388.677C40.8774 388.945 40.7777 389.285 40.8117 389.625C44.4206 413.389 51.9107 436.398 62.9824 457.732C66.0781 463.686 69.4416 469.491 73.0731 475.146C73.9882 476.573 76.0603 474.943 75.151 473.525Z" fill="#212529"/>
<path d="M40.7923 392.212C50.0101 392.212 57.4826 384.739 57.4826 375.521C57.4826 366.303 50.0101 358.831 40.7923 358.831C31.5745 358.831 24.1021 366.303 24.1021 375.521C24.1021 384.739 31.5745 392.212 40.7923 392.212Z" fill="#007BFF"/>
<path d="M23.9126 488.291V455.498C23.9163 452.238 25.2131 449.112 27.5185 446.807C29.8239 444.502 32.9495 443.205 36.2098 443.201H112.726C115.986 443.205 119.112 444.502 121.417 446.807C123.723 449.112 125.02 452.238 125.023 455.498V488.291C125.02 491.551 123.723 494.677 121.417 496.982C119.112 499.288 115.986 500.585 112.726 500.588H36.2098C32.9495 500.585 29.8239 499.288 27.5185 496.982C25.2131 494.677 23.9163 491.551 23.9126 488.291Z" fill="#FF8C00"/>
<path d="M647.999 493.484C647.999 511.457 633.429 519.627 615.456 519.627C597.482 519.627 582.912 511.457 582.912 493.484C582.912 475.51 590.144 454.539 615.456 461.771C640.767 450.923 647.999 475.51 647.999 493.484Z" fill="#FF6584"/>
<path d="M613.871 470.191C612.606 470.193 611.383 469.734 610.431 468.9C609.48 468.065 608.866 466.912 608.703 465.657C607.626 456.69 601.687 439.128 599.183 431.995L599.183 431.992C598.929 431.283 598.852 430.523 598.956 429.777C599.061 429.032 599.345 428.323 599.784 427.711C600.204 427.165 600.735 426.713 601.342 426.386C601.949 426.059 602.618 425.864 603.305 425.814C603.993 425.765 604.683 425.861 605.331 426.098C605.978 426.334 606.569 426.705 607.063 427.186C607.504 427.648 607.845 428.196 608.065 428.797C608.285 429.397 608.38 430.036 608.342 430.674C607.852 439.83 614.526 454.625 618.549 462.631C618.928 463.386 619.119 464.221 619.104 465.066C619.09 465.911 618.87 466.739 618.464 467.48C618.058 468.221 617.478 468.852 616.774 469.32C616.07 469.787 615.263 470.076 614.423 470.162C614.24 470.182 614.055 470.192 613.871 470.191Z" fill="#3F3D56"/>
<path d="M637.951 449.993C649.248 440.747 640.385 421.825 626.246 425.457C624.344 425.912 622.59 426.847 621.153 428.174C612.48 436.367 611.136 457.33 611.136 457.33C611.136 457.33 626.451 459.405 637.951 449.993Z" fill="#3F3D56"/>
</svg>
