<svg width="18" height="19" viewBox="0 0 18 19" fill="none" xmlns="http://www.w3.org/2000/svg">
<path fill-rule="evenodd" clip-rule="evenodd" d="M13 0.921875H5C2.23858 0.921875 0 3.16045 0 5.92188V13.9219C0 16.6833 2.23858 18.9219 5 18.9219H13C15.7614 18.9219 18 16.6833 18 13.9219V5.92188C18 3.16045 15.7614 0.921875 13 0.921875ZM16.25 13.9219C16.2445 15.7145 14.7926 17.1664 13 17.1719H5C3.20735 17.1664 1.75549 15.7145 1.75 13.9219V5.92188C1.75549 4.12923 3.20735 2.67736 5 2.67188H13C14.7926 2.67736 16.2445 4.12923 16.25 5.92188V13.9219ZM13.75 6.17188C14.3023 6.17188 14.75 5.72415 14.75 5.17188C14.75 4.6196 14.3023 4.17188 13.75 4.17188C13.1977 4.17188 12.75 4.6196 12.75 5.17188C12.75 5.72415 13.1977 6.17188 13.75 6.17188ZM9 5.42188C6.51472 5.42188 4.5 7.43659 4.5 9.92188C4.5 12.4072 6.51472 14.4219 9 14.4219C11.4853 14.4219 13.5 12.4072 13.5 9.92188C13.5027 8.72757 13.0294 7.58144 12.1849 6.73695C11.3404 5.89246 10.1943 5.41922 9 5.42188ZM6.25 9.92188C6.25 11.4407 7.4812 12.6719 9 12.6719C10.5188 12.6719 11.75 11.4407 11.75 9.92188C11.75 8.40308 10.5188 7.17188 9 7.17188C7.4812 7.17188 6.25 8.40308 6.25 9.92188Z" fill="#212529"/>
</svg>
