<svg width="138" height="40" viewBox="0 0 138 40" fill="none" xmlns="http://www.w3.org/2000/svg">
<path d="M13.4204 16.4549C13.1198 15.9598 12.7043 15.5796 12.1738 15.3144C11.6611 15.0492 11.051 14.9165 10.3438 14.9165C9.03533 14.9165 8.00096 15.3409 7.24064 16.1896C6.49801 17.0383 6.1267 18.1788 6.1267 19.611C6.1267 21.2201 6.52454 22.4489 7.32021 23.2977C8.13357 24.1287 9.3094 24.5442 10.8477 24.5442C12.6689 24.5442 13.9685 23.722 14.7465 22.0776H9.52158V18.338H19.2288V23.3772C18.8221 24.3674 18.221 25.2957 17.4253 26.1621C16.6473 27.0285 15.6571 27.7446 14.4548 28.3104C13.2524 28.8585 11.8821 29.1326 10.3438 29.1326C8.46952 29.1326 6.80744 28.7348 5.35755 27.9391C3.92533 27.1257 2.81139 26.003 2.01571 24.5707C1.23772 23.1208 0.84872 21.4676 0.84872 19.611C0.84872 17.7721 1.23772 16.1366 2.01571 14.7044C2.81139 13.2545 3.92533 12.1317 5.35755 11.336C6.78976 10.5227 8.443 10.116 10.3173 10.116C12.6689 10.116 14.6139 10.6818 16.1522 11.8134C17.6905 12.945 18.6453 14.4922 19.0166 16.4549H13.4204ZM35.7745 21.388C35.7745 21.7947 35.748 22.2014 35.6949 22.6081H25.8551C25.9081 23.4214 26.1292 24.0314 26.5182 24.4381C26.9248 24.8271 27.4376 25.0216 28.0565 25.0216C28.9229 25.0216 29.5417 24.6326 29.913 23.8546H35.4562C35.2264 24.8802 34.7755 25.7996 34.1036 26.613C33.4494 27.4086 32.6183 28.0363 31.6105 28.4961C30.6026 28.9558 29.4887 29.1857 28.2686 29.1857C26.8011 29.1857 25.4926 28.8762 24.3433 28.2574C23.2117 27.6385 22.3188 26.7544 21.6645 25.6051C21.028 24.4558 20.7097 23.1032 20.7097 21.5472C20.7097 19.9912 21.028 18.6474 21.6645 17.5158C22.3011 16.3664 23.1852 15.4824 24.3168 14.8635C25.4661 14.2446 26.7834 13.9352 28.2686 13.9352C29.7362 13.9352 31.0358 14.2358 32.1675 14.837C33.2991 15.4382 34.1832 16.3046 34.8197 17.4362C35.4562 18.5501 35.7745 19.8674 35.7745 21.388ZM30.47 20.0884C30.47 19.4519 30.2578 18.9568 29.8335 18.6032C29.4091 18.2319 28.8787 18.0462 28.2421 18.0462C27.6056 18.0462 27.084 18.223 26.6773 18.5767C26.2706 18.9126 26.0054 19.4165 25.8816 20.0884H30.47ZM46.6809 24.5707V29H44.4264C40.6249 29 38.7241 27.1169 38.7241 23.3507V18.444H36.8941V14.1209H38.7241V10.5138H43.949V14.1209H46.6543V18.444H43.949V23.4303C43.949 23.837 44.0374 24.1287 44.2143 24.3055C44.4088 24.4823 44.727 24.5707 45.1691 24.5707H46.6809ZM54.2636 10.3016V29H49.0652V10.3016H54.2636ZM66.0029 24.5707V29H63.7485C59.9469 29 58.0462 27.1169 58.0462 23.3507V18.444H56.2161V14.1209H58.0462V10.5138H63.2711V14.1209H65.9764V18.444H63.2711V23.4303C63.2711 23.837 63.3595 24.1287 63.5363 24.3055C63.7308 24.4823 64.0491 24.5707 64.4911 24.5707H66.0029ZM75.787 10.3016C77.7497 10.3016 79.4648 10.6995 80.9324 11.4951C82.4177 12.2731 83.5581 13.3694 84.3538 14.7839C85.1495 16.1985 85.5473 17.8163 85.5473 19.6376C85.5473 21.4411 85.1406 23.0501 84.3273 24.4647C83.5316 25.8792 82.3911 26.9931 80.9059 27.8065C79.4383 28.6022 77.732 29 75.787 29H68.3873V10.3016H75.787ZM75.3892 24.4116C76.9098 24.4116 78.1033 23.9961 78.9697 23.165C79.8361 22.334 80.2693 21.1582 80.2693 19.6376C80.2693 18.0992 79.8361 16.9146 78.9697 16.0835C78.1033 15.2348 76.9098 14.8105 75.3892 14.8105H73.5857V24.4116H75.3892ZM94.813 29.1857C93.3277 29.1857 91.9928 28.8762 90.8081 28.2574C89.6411 27.6385 88.7217 26.7544 88.0498 25.6051C87.3778 24.4558 87.0419 23.1032 87.0419 21.5472C87.0419 20.0089 87.3778 18.6651 88.0498 17.5158C88.7393 16.3664 89.6676 15.4824 90.8346 14.8635C92.0193 14.2446 93.3543 13.9352 94.8395 13.9352C96.3248 13.9352 97.6509 14.2446 98.8179 14.8635C100.003 15.4824 100.931 16.3664 101.603 17.5158C102.292 18.6651 102.637 20.0089 102.637 21.5472C102.637 23.0855 102.292 24.4381 101.603 25.6051C100.931 26.7544 100.003 27.6385 98.8179 28.2574C97.6332 28.8762 96.2983 29.1857 94.813 29.1857ZM94.813 24.6768C95.5379 24.6768 96.1391 24.4116 96.6165 23.8812C97.1116 23.333 97.3592 22.555 97.3592 21.5472C97.3592 20.5393 97.1116 19.7702 96.6165 19.2397C96.1391 18.7093 95.5468 18.444 94.8395 18.444C94.1322 18.444 93.5399 18.7093 93.0625 19.2397C92.5851 19.7702 92.3464 20.5393 92.3464 21.5472C92.3464 22.5727 92.5763 23.3507 93.036 23.8812C93.4957 24.4116 94.088 24.6768 94.813 24.6768ZM114.486 13.9883C116.201 13.9883 117.562 14.5629 118.57 15.7122C119.578 16.8438 120.082 18.3822 120.082 20.3271V29H114.884V21.0167C114.884 20.168 114.663 19.5049 114.221 19.0275C113.779 18.5324 113.186 18.2849 112.444 18.2849C111.666 18.2849 111.056 18.5324 110.614 19.0275C110.172 19.5049 109.951 20.168 109.951 21.0167V29H104.752V14.1209H109.951V16.2427C110.41 15.5708 111.029 15.0315 111.807 14.6248C112.585 14.2004 113.478 13.9883 114.486 13.9883ZM137.151 21.388C137.151 21.7947 137.124 22.2014 137.071 22.6081H127.231C127.284 23.4214 127.505 24.0314 127.894 24.4381C128.301 24.8271 128.814 25.0216 129.433 25.0216C130.299 25.0216 130.918 24.6326 131.289 23.8546H136.832C136.602 24.8802 136.152 25.7996 135.48 26.613C134.825 27.4086 133.994 28.0363 132.987 28.4961C131.979 28.9558 130.865 29.1857 129.645 29.1857C128.177 29.1857 126.869 28.8762 125.719 28.2574C124.588 27.6385 123.695 26.7544 123.041 25.6051C122.404 24.4558 122.086 23.1032 122.086 21.5472C122.086 19.9912 122.404 18.6474 123.041 17.5158C123.677 16.3664 124.561 15.4824 125.693 14.8635C126.842 14.2446 128.159 13.9352 129.645 13.9352C131.112 13.9352 132.412 14.2358 133.544 14.837C134.675 15.4382 135.559 16.3046 136.196 17.4362C136.832 18.5501 137.151 19.8674 137.151 21.388ZM131.846 20.0884C131.846 19.4519 131.634 18.9568 131.21 18.6032C130.785 18.2319 130.255 18.0462 129.618 18.0462C128.982 18.0462 128.46 18.223 128.053 18.5767C127.647 18.9126 127.381 19.4165 127.258 20.0884H131.846Z" fill="#212529"/>
<line y1="38.2301" x2="138" y2="38.2301" stroke="#212529" stroke-width="3.10811"/>
<path d="M128.468 39.7836C129.327 39.7836 130.022 39.0879 130.022 38.2296C130.022 37.3713 129.327 36.6755 128.468 36.6755L128.468 39.7836ZM-8.4511e-05 39.7835L128.468 39.7836L128.468 36.6755L-8.24541e-05 36.6754L-8.4511e-05 39.7835Z" fill="#FF8C00"/>
</svg>
