<svg width="440" height="40" viewBox="0 0 440 40" fill="none" xmlns="http://www.w3.org/2000/svg">
<line x1="151" y1="38.1037" x2="289" y2="38.1037" stroke="#212529" stroke-width="3.10811"/>
<path d="M279.468 39.6577C280.327 39.6577 281.022 38.9619 281.022 38.1036C281.022 37.2453 280.327 36.5496 279.468 36.5496L279.468 39.6577ZM151 39.6576L279.468 39.6577L279.468 36.5496L151 36.5495L151 39.6576Z" fill="#FF8C00"/>
<path d="M164.524 16.4549C164.223 15.9598 163.808 15.5796 163.277 15.3144C162.765 15.0492 162.155 14.9165 161.447 14.9165C160.139 14.9165 159.105 15.3409 158.344 16.1896C157.602 17.0383 157.23 18.1788 157.23 19.611C157.23 21.2201 157.628 22.4489 158.424 23.2977C159.237 24.1287 160.413 24.5442 161.951 24.5442C163.773 24.5442 165.072 23.722 165.85 22.0776H160.625V18.338H170.332V23.3772C169.926 24.3674 169.325 25.2957 168.529 26.1621C167.751 27.0285 166.761 27.7446 165.558 28.3104C164.356 28.8585 162.986 29.1326 161.447 29.1326C159.573 29.1326 157.911 28.7348 156.461 27.9391C155.029 27.1257 153.915 26.003 153.119 24.5707C152.341 23.1208 151.952 21.4676 151.952 19.611C151.952 17.7721 152.341 16.1366 153.119 14.7044C153.915 13.2545 155.029 12.1317 156.461 11.336C157.893 10.5227 159.547 10.116 161.421 10.116C163.773 10.116 165.718 10.6818 167.256 11.8134C168.794 12.945 169.749 14.4922 170.12 16.4549H164.524ZM186.878 21.388C186.878 21.7947 186.852 22.2014 186.799 22.6081H176.959C177.012 23.4214 177.233 24.0314 177.622 24.4381C178.028 24.8271 178.541 25.0216 179.16 25.0216C180.026 25.0216 180.645 24.6326 181.017 23.8546H186.56C186.33 24.8802 185.879 25.7996 185.207 26.613C184.553 27.4086 183.722 28.0363 182.714 28.4961C181.706 28.9558 180.592 29.1857 179.372 29.1857C177.905 29.1857 176.596 28.8762 175.447 28.2574C174.315 27.6385 173.422 26.7544 172.768 25.6051C172.132 24.4558 171.813 23.1032 171.813 21.5472C171.813 19.9912 172.132 18.6474 172.768 17.5158C173.405 16.3664 174.289 15.4824 175.42 14.8635C176.57 14.2446 177.887 13.9352 179.372 13.9352C180.84 13.9352 182.139 14.2358 183.271 14.837C184.403 15.4382 185.287 16.3046 185.923 17.4362C186.56 18.5501 186.878 19.8674 186.878 21.388ZM181.574 20.0884C181.574 19.4519 181.361 18.9568 180.937 18.6032C180.513 18.2319 179.982 18.0462 179.346 18.0462C178.709 18.0462 178.188 18.223 177.781 18.5767C177.374 18.9126 177.109 19.4165 176.985 20.0884H181.574ZM197.785 24.5707V29H195.53C191.729 29 189.828 27.1169 189.828 23.3507V18.444H187.998V14.1209H189.828V10.5138H195.053V14.1209H197.758V18.444H195.053V23.4303C195.053 23.837 195.141 24.1287 195.318 24.3055C195.512 24.4823 195.831 24.5707 196.273 24.5707H197.785ZM205.367 10.3016V29H200.169V10.3016H205.367ZM217.107 24.5707V29H214.852C211.051 29 209.15 27.1169 209.15 23.3507V18.444H207.32V14.1209H209.15V10.5138H214.375V14.1209H217.08V18.444H214.375V23.4303C214.375 23.837 214.463 24.1287 214.64 24.3055C214.834 24.4823 215.153 24.5707 215.595 24.5707H217.107ZM226.891 10.3016C228.853 10.3016 230.568 10.6995 232.036 11.4951C233.521 12.2731 234.662 13.3694 235.457 14.7839C236.253 16.1985 236.651 17.8163 236.651 19.6376C236.651 21.4411 236.244 23.0501 235.431 24.4647C234.635 25.8792 233.495 26.9931 232.01 27.8065C230.542 28.6022 228.836 29 226.891 29H219.491V10.3016H226.891ZM226.493 24.4116C228.013 24.4116 229.207 23.9961 230.073 23.165C230.94 22.334 231.373 21.1582 231.373 19.6376C231.373 18.0992 230.94 16.9146 230.073 16.0835C229.207 15.2348 228.013 14.8105 226.493 14.8105H224.689V24.4116H226.493ZM245.917 29.1857C244.431 29.1857 243.096 28.8762 241.912 28.2574C240.745 27.6385 239.825 26.7544 239.153 25.6051C238.481 24.4558 238.146 23.1032 238.146 21.5472C238.146 20.0089 238.481 18.6651 239.153 17.5158C239.843 16.3664 240.771 15.4824 241.938 14.8635C243.123 14.2446 244.458 13.9352 245.943 13.9352C247.428 13.9352 248.755 14.2446 249.922 14.8635C251.106 15.4824 252.034 16.3664 252.706 17.5158C253.396 18.6651 253.741 20.0089 253.741 21.5472C253.741 23.0855 253.396 24.4381 252.706 25.6051C252.034 26.7544 251.106 27.6385 249.922 28.2574C248.737 28.8762 247.402 29.1857 245.917 29.1857ZM245.917 24.6768C246.642 24.6768 247.243 24.4116 247.72 23.8812C248.215 23.333 248.463 22.555 248.463 21.5472C248.463 20.5393 248.215 19.7702 247.72 19.2397C247.243 18.7093 246.65 18.444 245.943 18.444C245.236 18.444 244.644 18.7093 244.166 19.2397C243.689 19.7702 243.45 20.5393 243.45 21.5472C243.45 22.5727 243.68 23.3507 244.14 23.8812C244.599 24.4116 245.192 24.6768 245.917 24.6768ZM265.59 13.9883C267.305 13.9883 268.666 14.5629 269.674 15.7122C270.682 16.8438 271.186 18.3822 271.186 20.3271V29H265.987V21.0167C265.987 20.168 265.766 19.5049 265.324 19.0275C264.882 18.5324 264.29 18.2849 263.547 18.2849C262.769 18.2849 262.159 18.5324 261.717 19.0275C261.275 19.5049 261.054 20.168 261.054 21.0167V29H255.856V14.1209H261.054V16.2427C261.514 15.5708 262.133 15.0315 262.911 14.6248C263.689 14.2004 264.582 13.9883 265.59 13.9883ZM288.254 21.388C288.254 21.7947 288.228 22.2014 288.175 22.6081H278.335C278.388 23.4214 278.609 24.0314 278.998 24.4381C279.405 24.8271 279.917 25.0216 280.536 25.0216C281.403 25.0216 282.021 24.6326 282.393 23.8546H287.936C287.706 24.8802 287.255 25.7996 286.583 26.613C285.929 27.4086 285.098 28.0363 284.09 28.4961C283.082 28.9558 281.968 29.1857 280.748 29.1857C279.281 29.1857 277.972 28.8762 276.823 28.2574C275.691 27.6385 274.798 26.7544 274.144 25.6051C273.508 24.4558 273.189 23.1032 273.189 21.5472C273.189 19.9912 273.508 18.6474 274.144 17.5158C274.781 16.3664 275.665 15.4824 276.796 14.8635C277.946 14.2446 279.263 13.9352 280.748 13.9352C282.216 13.9352 283.516 14.2358 284.647 14.837C285.779 15.4382 286.663 16.3046 287.299 17.4362C287.936 18.5501 288.254 19.8674 288.254 21.388ZM282.95 20.0884C282.95 19.4519 282.738 18.9568 282.313 18.6032C281.889 18.2319 281.358 18.0462 280.722 18.0462C280.085 18.0462 279.564 18.223 279.157 18.5767C278.75 18.9126 278.485 19.4165 278.361 20.0884H282.95Z" fill="#F5F5F5"/>
</svg>
