<svg width="22" height="23" viewBox="0 0 22 23" fill="none" xmlns="http://www.w3.org/2000/svg">
<path fill-rule="evenodd" clip-rule="evenodd" d="M11.0004 0.929688C16.9374 0.929688 21.7504 5.74269 21.7504 11.6797C21.7504 17.6167 16.9374 22.4297 11.0004 22.4297C9.14044 22.4297 7.39044 21.9567 5.86344 21.1247L1.12344 21.9197C1.00661 21.9392 0.886827 21.9307 0.773893 21.895C0.660958 21.8593 0.558086 21.7974 0.4737 21.7142C0.389315 21.6311 0.325815 21.5292 0.288401 21.4168C0.250986 21.3044 0.24072 21.1848 0.258445 21.0677L1.05844 15.7777C0.522519 14.478 0.247955 13.0855 0.250444 11.6797C0.250444 5.74269 5.06344 0.929688 11.0004 0.929688ZM6.94344 6.37969C6.20844 6.37969 5.59944 6.99969 5.71344 7.76569C5.92944 9.20169 6.56744 11.8477 8.46544 13.7597C10.4494 15.7587 13.2884 16.6137 14.8254 16.9507C15.6214 17.1257 16.3004 16.4957 16.3004 15.7187V13.8947C16.3005 13.8341 16.2821 13.7749 16.2479 13.7249C16.2136 13.6749 16.165 13.6365 16.1084 13.6147L14.1484 12.8617C14.0955 12.8414 14.038 12.8366 13.9824 12.8477L12.0054 13.2337C10.7304 12.5737 9.95844 11.8337 9.49544 10.7187L9.86744 8.70369C9.87741 8.65007 9.87257 8.59476 9.85344 8.54369L9.11844 6.57469C9.09711 6.51759 9.05889 6.46834 9.00887 6.4335C8.95885 6.39867 8.8994 6.3799 8.83844 6.37969H6.94344Z" fill="#212529"/>
</svg>
